<svg xmlns="http://www.w3.org/2000/svg" viewBox="0 0 851.26 750.91"><defs><style>.cls-1{fill:#545454;}</style></defs><title>Asset 1</title><g id="Layer_2" data-name="Layer 2"><g id="Layer_1-2" data-name="Layer 1"><g id="Layer_2-2" data-name="Layer 2"><g id="Layer_1-2-2" data-name="Layer 1-2"><g id="Layer_2-2-2" data-name="Layer 2-2"><g id="Layer_1-2-2-2" data-name="Layer 1-2-2"><path class="cls-1" d="M843.87,428a490.57,490.57,0,0,1-16.68-67.67q-1.69-9.45-3.11-18.94l-.63-4.28c-.38-3.93-1-7.86-1.48-11.77q-2.7-23.26-4.11-46.65c-1.77-28.47.14-57.45-3.29-85.75-2.8-23.09-8.61-44.38-19.31-65.17C761.51,62.2,687.74,28.28,619,13A530.46,530.46,0,0,0,503,0Q425.43.16,347.86,0A526.5,526.5,0,0,0,230.25,13.4C161.69,29,87.73,63.57,55,129.73c-10.44,21.12-16,42.38-18.61,65.7-1.37,12.2-1,24.46-1.19,36.72q-.4,25.42-2.06,50.85-1.55,23.17-4.3,46.24c-.15,1.24-1.66,12.09-.86,6.86s-.8,5.34-1,6.53q-1.61,10.6-3.55,21.15a583.7,583.7,0,0,1-16.8,66.54C-12.7,493,11.42,560.79,63.2,599.87c21.73,16.4,47.33,28.66,71.5,41,26.87,13.78,54.18,26.7,81.71,39.11q41.89,18.89,84.43,36.33c23.06,9.52,46.36,20.25,70.25,27.53,18.76,5.72,38.16,6.91,57.62,7.06s39.16-2.54,57.4-9c23.23-8.24,46-18,68.8-27.42,56.29-23.36,112.18-48,166.32-76,26-13.45,53-26.9,75.69-45.52,23.38-19.15,40.49-46.71,48.65-75.71A156.28,156.28,0,0,0,843.87,428ZM446.13,681.37C447.25,681.27,447.93,681.24,446.13,681.37ZM749.52,543.2l-.65.44C750.41,542.41,753.73,540.36,749.52,543.2Zm32.36-56.38v.42a4.1,4.1,0,0,1-.14.63,143.45,143.45,0,0,1-5.38,19.78c-.26.71-.59,1.44-.89,2.17v.09c-1.24,2.35-2.38,4.76-3.68,7.08q-2.24,4-4.78,7.8c-.74,1.11-1.54,2.19-2.29,3.29a137.25,137.25,0,0,1-12.84,13.17c-.71.62-2.53,1.81-3.3,2.64-2.63,1.77-5.25,3.53-8,5.18-48.32,29.2-99.77,53.42-151.31,76.34q-19,8.43-38,16.55l-3.56,1.51-8.78,3.67q-9.31,3.87-18.64,7.68c-22.7,9.25-46.15,20.7-70.22,25.69-1.76.36-3.53.67-5.31,1h-.68c-4.07.29-8.12.55-12.21.55-8.64,0-17.17-.24-25.79-.7H406c-1.48-.36-3-.54-4.53-.85-4-.84-8-1.86-11.94-3.06-6.59-2-13-4.63-19.41-7.13q-33.13-12.9-65.9-26.69c-1.28-.6-2.67-1.11-4-1.67l-9.37-4q-10.74-4.62-21.44-9.34Q249.9,620,230.58,611.09c-26-12-51.75-24.59-77.06-38-4.73-2.51-9.42-5.08-14.11-7.65,41.44-59.16,129.33-123.15,129.33-123.15-46-13.43-141.81,27-197.34,53.71-.59-2.32-1.14-4.66-1.59-7-.16-.85-.44-3.11-.51-3.43a120.47,120.47,0,0,1-.15-18.35,17,17,0,0,1,.29-2.17c66.08-62.71,188.09-139.78,188.09-139.78-37.53-25-112.89.41-162.1,21.85,4.12-30.55,6.92-61.19,8.1-92,.58-15.25.38-30.51.83-45.76.13-4.4.52-8.76.91-13.14q.6-3.6,1.37-7.16c1.74-8,5.1-15.45,7.28-23.26q1.27-2.64,2.66-5.23,2.77-5.17,6-10.09,1.58-2.43,3.25-4.78c2.35-2.65,4.5-5.51,6.92-8.11a183.7,183.7,0,0,1,16.94-15.77c1.26-.91,2.51-1.84,3.78-2.73q4.73-3.31,9.65-6.35a236,236,0,0,1,21-11.51c3.12-1.52,6.27-2.94,9.43-4.35,1.88-.74,3.75-1.51,5.64-2.23q10.74-4.09,21.75-7.43A416.38,416.38,0,0,1,265,76.46q8.64-1.63,17.34-2.94a40.8,40.8,0,0,1,4.1-.63h.35l3-.42-2.23.34c2.79-.34,5.58-.68,8.38-1A460.45,460.45,0,0,1,344,68.9c42-.09,83.93,0,125.9,0,14.27,0,28.56-.23,42.83,0,7.75.15,15.49.53,23.21,1.07q8.13.57,16.23,1.39,4.37.44,8.73,1l2.94.36c28.65,4.35,57,10.4,84.24,20.37,3.32,1.21,6.6,2.53,9.89,3.82,1.77.79,3.55,1.58,5.31,2.4,7.23,3.38,14.32,7.07,21.18,11.14,6.66,3.95,12.79,8.52,19.19,12.84-10.69-7.21.33.39,3.06,2.78q4.59,4,8.87,8.37,4,4.1,7.74,8.49c1.06,1.26,2,2.74,3.19,3.9l-1-1a8.48,8.48,0,0,1,.73,1A153.25,153.25,0,0,1,738,167.2l.14.28c.53,1.37,1.06,2.74,1.55,4.12q2.21,6.28,3.83,12.75c1,4,1.78,8.08,2.5,12.16.24,2.51.49,5,.64,7.54,1.8,30,1,60.15,3.35,90.22a851.33,851.33,0,0,0,11.52,88.93,483.23,483.23,0,0,0,15.87,63.1,163,163,0,0,1,4.6,18.2c.11,1.36.2,2.91.19,2.72q.36,5.21.25,10.42Q782.31,482.23,781.88,486.82Zm-.14-24.25a8.87,8.87,0,0,1,.2,1.62A7,7,0,0,1,781.74,462.57Z"/><path class="cls-1" d="M286.75,72.82l-1.79.25-2.66.42c.62-.08,2.16-.3,5.21-.76Z"/><path class="cls-1" d="M725.58,145.88C723.33,143.11,719.77,140,725.58,145.88Z"/></g></g></g></g></g></g></svg>