<svg xmlns="http://www.w3.org/2000/svg" viewBox="0 0 224 198"><defs><style>.cls-1{fill:#fff;}</style></defs><title>logo-white</title><g id="Layer_2" data-name="Layer 2"><g id="Layer_1-2" data-name="Layer 1"><g id="Welcome"><g id="Desktop-HD-Copy-5"><g id="logo"><path id="Shape" class="cls-1" d="M222.06,112.86A129.57,129.57,0,0,1,217.67,95q-.44-2.49-.82-5l-.17-1.13c-.1-1-.26-2.07-.39-3.1q-.71-6.13-1.08-12.3c-.47-7.51,0-15.15-.87-22.61a49.84,49.84,0,0,0-5.08-17.18C200.38,16.4,181,7.46,162.88,3.43A139.31,139.31,0,0,0,132.36,0Q111.95,0,91.54,0A138.27,138.27,0,0,0,60.59,3.53c-18,4.11-37.5,13.23-46.12,30.67a50.87,50.87,0,0,0-4.9,17.32c-.36,3.22-.26,6.45-.31,9.68q-.11,6.7-.54,13.41-.41,6.11-1.13,12.19c0,.33-.44,3.19-.23,1.81S7.15,90,7.1,90.35q-.42,2.8-.93,5.58a154.17,154.17,0,0,1-4.42,17.55C-3.34,130,3,147.87,16.63,158.17c5.72,4.32,12.45,7.56,18.81,10.81,7.07,3.63,14.26,7,21.5,10.31s14.75,6.51,22.22,9.58c6.07,2.51,12.2,5.34,18.49,7.26A52.83,52.83,0,0,0,112.81,198a44.32,44.32,0,0,0,15.1-2.37c6.11-2.17,12.1-4.75,18.1-7.23,14.81-6.16,29.52-12.66,43.77-20,6.84-3.55,13.95-7.09,19.92-12a40.17,40.17,0,0,0,12.8-20A41.29,41.29,0,0,0,222.06,112.86Zm-24.83,30.38-.17.12C197.46,143,198.34,142.48,197.23,143.23Zm8.52-14.87v.11a1.08,1.08,0,0,1,0,.17,37.89,37.89,0,0,1-1.42,5.22c-.07.19-.16.38-.23.57v0c-.33.62-.63,1.26-1,1.87s-.81,1.39-1.26,2.06c-.19.29-.41.58-.6.87a36.16,36.16,0,0,1-3.38,3.47c-.19.16-.67.48-.87.7-.69.47-1.38.93-2.11,1.37-12.71,7.7-26.25,14.09-39.82,20.13q-5,2.22-10,4.36l-.94.4-2.31,1-4.9,2c-6,2.44-12.14,5.46-18.48,6.77l-1.4.26h-.18c-1.07.08-2.14.15-3.21.15-2.27,0-4.52-.06-6.79-.18h0c-.39-.09-.79-.14-1.19-.22-1.05-.22-2.11-.49-3.14-.81-1.73-.53-3.42-1.22-5.11-1.88q-8.72-3.4-17.34-7c-.34-.16-.7-.29-1.05-.44l-2.47-1.05q-2.83-1.22-5.64-2.46-5.13-2.27-10.22-4.62c-6.84-3.16-13.62-6.48-20.28-10-1.24-.66-2.48-1.34-3.71-2,10.9-15.6,34-32.47,34-32.47-12.1-3.54-37.32,7.12-51.93,14.16-.16-.61-.3-1.23-.42-1.85,0-.22-.12-.82-.13-.9a31.83,31.83,0,0,1,0-4.84,4.49,4.49,0,0,1,.08-.57c17.39-16.54,49.49-36.86,49.49-36.86-9.88-6.59-29.71.11-42.65,5.76,1.08-8.06,1.82-16.13,2.13-24.26.15-4,.1-8,.22-12.07,0-1.16.14-2.31.24-3.46q.16-.95.36-1.89c.46-2.11,1.34-4.07,1.92-6.13q.33-.7.7-1.38.73-1.36,1.58-2.66.42-.64.86-1.26c.62-.7,1.18-1.45,1.82-2.14a48.38,48.38,0,0,1,4.46-4.16l1-.72q1.24-.87,2.54-1.67a62.06,62.06,0,0,1,5.53-3c.82-.4,1.65-.78,2.48-1.15L52.42,25q2.83-1.08,5.72-2a109.38,109.38,0,0,1,11.59-2.84q2.27-.43,4.56-.78a10.72,10.72,0,0,1,1.08-.17h.09l.79-.11-.59.09,2.21-.26a120.92,120.92,0,0,1,12.65-.77c11.05,0,22.09,0,33.13,0,3.75,0,7.52-.06,11.27,0,2,0,4.08.14,6.11.28q2.14.15,4.27.37,1.15.12,2.3.26l.77.09a113.8,113.8,0,0,1,22.17,5.37c.87.32,1.74.67,2.6,1l1.4.63c1.9.89,3.77,1.86,5.57,2.94s3.37,2.25,5,3.39c-2.81-1.9.09.1.81.73s1.58,1.44,2.33,2.21,1.38,1.47,2,2.24c.28.33.53.72.84,1l-.26-.26a2.23,2.23,0,0,1,.19.26,40.43,40.43,0,0,1,3.09,5.37l0,.07c.14.36.28.72.41,1.09q.58,1.66,1,3.36c.26,1.05.47,2.13.66,3.21.06.66.13,1.32.17,2,.47,7.91.26,15.86.88,23.79a224.92,224.92,0,0,0,3,23.45,127.63,127.63,0,0,0,4.18,16.64,43.06,43.06,0,0,1,1.21,4.8c0,.36.05.77,0,.72q.09,1.37.07,2.75Q205.86,127.16,205.74,128.37Zm0-6.39a2.34,2.34,0,0,1,.05.43,1.85,1.85,0,0,1-.05-.43Z"/></g></g></g></g></g></svg>