<?xml version="1.0" encoding="UTF-8"?>
<svg width="582px" height="459px" viewBox="0 0 582 459" version="1.1" xmlns="http://www.w3.org/2000/svg" xmlns:xlink="http://www.w3.org/1999/xlink">
    <!-- Generator: Sketch 43.1 (39012) - http://www.bohemiancoding.com/sketch -->
    <title>Group 6</title>
    <desc>Created with Sketch.</desc>
    <defs></defs>
    <g id="Welcome" stroke="none" stroke-width="1" fill="none" fill-rule="evenodd">
        <g id="Desktop-HD" transform="translate(-127.000000, -2995.000000)">
            <g id="Group-6" transform="translate(128.000000, 2984.000000)">
                <g id="Group-Copy" opacity="0.05" transform="translate(290.000000, 236.000000) rotate(-360.000000) translate(-290.000000, -236.000000) translate(0.000000, 126.000000)" stroke="#333333" fill-rule="nonzero" stroke-width="2" fill="#97EEF1">
                    <rect id="Rectangle-path" x="333.835145" y="94.5612268" width="94.4938593" height="38.5032979" rx="12"></rect>
                    <rect id="Rectangle-path" x="230.855204" y="94.5612268" width="94.4938593" height="38.5032979" rx="12"></rect>
                    <rect id="Rectangle-path" x="127.875263" y="94.5612268" width="94.4938593" height="38.5032979" rx="12"></rect>
                    <rect id="Rectangle-path" x="350.814346" y="135.895235" width="94.4938593" height="38.5032979" rx="12"></rect>
                    <rect id="Rectangle-path" x="253.491793" y="138.162621" width="94.4938593" height="38.5032979" rx="12"></rect>
                    <rect id="Rectangle-path" x="265.369493" y="181.193647" width="94.4938593" height="38.5032979" rx="12"></rect>
                    <rect id="Rectangle-path" x="485.479882" y="53.2272182" width="94.4938593" height="38.5032979" rx="12"></rect>
                    <rect id="Rectangle-path" x="350.814346" y="53.2272182" width="94.4938593" height="38.5032979" rx="12"></rect>
                    <rect id="Rectangle-path" x="230.855204" y="46.9954299" width="94.4938593" height="38.5032979" rx="12"></rect>
                    <rect id="Rectangle-path" x="115.427602" y="46.9954299" width="94.4938593" height="38.5032979" rx="12"></rect>
                    <rect id="Rectangle-path" x="127.875263" y="3.96440321" width="94.4938593" height="38.5032979" rx="12"></rect>
                    <rect id="Rectangle-path" x="239.341286" y="0" width="94.4938593" height="38.5032979" rx="12"></rect>
                    <rect id="Rectangle-path" x="0" y="46.9954299" width="94.4938593" height="38.5032979" rx="12"></rect>
                    <rect id="Rectangle-path" x="448.136899" y="135.895235" width="94.4938593" height="38.5032979" rx="12"></rect>
                    <rect id="Rectangle-path" x="416.451305" y="8.49213192" width="94.4938593" height="38.5032979" rx="12"></rect>
                    <rect id="Rectangle-path" x="431.72766" y="94.5612268" width="94.4938593" height="38.5032979" rx="12"></rect>
                </g>
                <g id="Group-7" transform="translate(192.000000, 0.000000)">
                    <g id="if_code-programming-javascript-software-develop-command-language_652581" transform="translate(178.000000, 154.000000)" fill-rule="nonzero">
                        <circle id="Oval" fill="#F0DB4F" cx="24" cy="24" r="24"></circle>
                        <g id="Layer_1_1_" transform="translate(11.040000, 14.400000)" fill="#323330">
                            <g id="Group">
                                <path d="M5.472,0.288 L9.648,0.288 L9.648,12.048 C9.648,17.328 7.104,19.2 3.072,19.2 C2.064,19.2 0.816,19.056 0,18.768 L0.48,15.36 C1.056,15.552 1.824,15.696 2.64,15.696 C4.416,15.696 5.52,14.88 5.52,12.048 L5.472,0.288 L5.472,0.288 Z" id="Shape"></path>
                                <path d="M13.344,14.592 C14.448,15.168 16.224,15.744 18,15.744 C19.92,15.744 20.928,14.928 20.928,13.68 C20.928,12.528 20.064,11.856 17.808,11.088 C14.736,9.984 12.672,8.256 12.672,5.52 C12.672,2.4 15.36,0 19.728,0 C21.84,0 23.376,0.432 24.48,0.96 L23.52,4.32 C22.8,3.984 21.456,3.456 19.68,3.456 C17.856,3.456 16.992,4.32 16.992,5.232 C16.992,6.432 18,6.96 20.448,7.872 C23.712,9.072 25.248,10.8 25.248,13.44 C25.248,16.56 22.896,19.2 17.76,19.2 C15.648,19.2 13.536,18.624 12.48,18.048 L13.344,14.592 Z" id="Shape"></path>
                            </g>
                        </g>
                    </g>
                    <g id="if_html5_245995" transform="translate(184.000000, 415.000000)" fill-rule="nonzero">
                        <polygon id="Shape" fill="#D99666" points="0 0.376405622 51 0.376405622 45.9 49.8726908 27.2 54.9931727 23.8 54.9931727 5.1 49.8726908 0 0.376405622"></polygon>
                        <polygon id="Shape" fill="#F4B459" points="25.5 5.49518072 44.2 5.49518072 40.8 44.7522088 25.5 49.8726908 25.5 5.49518072"></polygon>
                        <polygon id="Shape" fill="#FFFFFF" points="39.1306 15.7139558 39.6661 10.6156627 10.1456 10.6156627 10.7406 15.7139558 11.2846 22.5754016 11.2778 22.5754016 11.7929 27.6822289 31.5826 27.6822289 30.9026 35.8067269 25.5 37.5203815 25.5 37.4674699 18.3158 35.5609438 17.8755 31.0839357 11.8762 31.0839357 12.682 39.3074297 12.682 39.6436747 25.5 43.0453815 36.2491 39.6436747 36.38 39.6436747 36.3834 39.5975904 36.4072 39.5941767 36.4072 39.324498 37.3796 27.6822289 37.4017 27.6822289 37.9185 22.5754016 17.5236 22.5754016 16.9796 15.7139558"></polygon>
                        <g id="Group" transform="translate(9.824675, 10.240964)" fill="#E5E5E5">
                            <polygon id="Shape" points="15.6753247 0.374698795 0.320924675 0.374698795 0.915924675 5.47299197 1.45992468 12.3344378 1.45312468 12.3344378 1.96822468 17.4412651 15.6753247 17.4412651 15.6753247 12.3344378 7.69892468 12.3344378 7.15492468 5.47299197 15.6753247 5.47299197"></polygon>
                            <polygon id="Shape" points="15.6753247 27.226506 8.49112468 25.3199799 8.05082468 20.8429719 2.05152468 20.8429719 2.85732468 29.0664659 2.85732468 29.4027108 15.6753247 32.8044177 15.6753247 27.2794177"></polygon>
                        </g>
                    </g>
                    <path d="M147.753495,16.7079564 L152.032622,64.6089004 L171.241697,69.9301615 L190.467626,64.6116231 L194.753495,16.7079564 L147.753495,16.7079564 L147.753495,16.7079564 Z M186.194762,32.6734825 L185.648874,38.8053683 L184.003283,57.1937577 L171.703965,60.5942235 L171.695772,60.5969985 L159.404514,57.1937577 L158.546766,47.5759088 L164.568708,47.5759088 L165.014959,52.5650118 L171.697225,54.3682511 L171.7037,54.3660046 L178.393895,52.5619725 L179.306219,44.252483 L158.258824,44.3071907 L157.664176,38.6249915 L179.813256,38.3666497 L180.260828,32.2820715 L157.069527,32.3481436 L156.677851,26.6888054 L171.703833,26.6888054 L186.731003,26.6888054 L186.194762,32.6734825 Z" id="Shape" fill="#424852" fill-rule="nonzero" transform="translate(171.253495, 43.319059) rotate(17.000000) translate(-171.253495, -43.319059) "></path>
                    <g id="if_social-45_1591883" transform="translate(180.000000, 298.321957)" fill-rule="nonzero">
                        <ellipse id="Oval" fill="#0074A2" cx="24.5" cy="24.5239316" rx="24.5" ry="24.4755245"></ellipse>
                        <path d="M23.8853222,12.7218337 L25.1130444,12.7218337 C25.1898111,12.736519 25.2654889,12.7609946 25.3428,12.7664336 C26.8830333,12.8686869 28.3541222,13.2466977 29.7223111,13.9570319 C33.3423222,15.8362082 35.5059444,18.7863248 36.1734333,22.8177156 C36.2333222,23.1799534 36.2681667,23.5454545 36.3149889,23.9098679 L36.3149889,25.1379953 C36.3002889,25.2146853 36.2752444,25.2886558 36.2692556,25.3664336 C36.1652667,26.9290598 35.7754444,28.4193473 35.0464333,29.804662 C33.1588444,33.3846154 30.2150333,35.5264957 26.2101,36.186791 C25.8475,36.2460761 25.4794556,36.2803419 25.1135889,36.3271173 L23.8858667,36.3271173 C23.8096444,36.312432 23.7339667,36.2868687 23.6572,36.2825175 C22.1082556,36.1802642 20.629,35.7979021 19.2559111,35.0810412 C15.6500556,33.1986014 13.4907889,30.2528361 12.8254778,26.2317793 C12.7661333,25.8684538 12.7307444,25.5018648 12.6850111,25.1374514 L12.6850111,23.909324 C12.7002556,23.8337218 12.7253,23.7586636 12.7296556,23.6819736 C12.8341889,22.1024864 13.2316333,20.5969697 13.9737111,19.2013209 C15.8607556,15.6534577 18.7898667,13.5262626 22.7664889,12.8648796 C23.1378,12.8034188 23.5123778,12.7686092 23.8853222,12.7218337 Z M31.6801333,16.6585859 C28.6573778,14.136519 25.3030556,13.2869464 21.5431222,14.3290598 C19.0419444,15.022533 17.0971889,16.5160839 15.6081333,18.6971251 C16.1879667,18.6971251 16.6992,18.7107226 17.2077111,18.6927739 C17.8365444,18.670474 18.4648333,18.6182595 19.0936667,18.5856255 C19.3833111,18.5709402 19.5564444,18.7058275 19.5814889,18.9478632 C19.6098,19.2219891 19.4824,19.3824398 19.1894889,19.4335664 C19.0822333,19.452603 18.9722556,19.4591298 18.8617333,19.4683761 C18.5769889,19.4950272 18.2922444,19.5205905 17.9802778,19.5477855 C19.2722444,23.3882673 20.5511444,27.1868687 21.8491,31.0431235 C21.8926556,30.9495726 21.9051778,30.9294483 21.9122556,30.9082362 C22.6586889,28.6755245 23.4051222,26.441181 24.1466556,24.2062937 C24.1755111,24.1192696 24.1619,24.0034188 24.1308667,23.9142191 C23.6267111,22.5185703 23.1154778,21.125641 22.6113222,19.7299922 C22.5579667,19.5825952 22.4806556,19.5227661 22.3233111,19.5146076 C22.0097111,19.4977467 21.6966556,19.4667444 21.3836,19.4254079 C21.1364222,19.39223 21.0122889,19.2192696 21.0362444,18.9794095 C21.0580222,18.741181 21.2115556,18.5916084 21.4543778,18.5861694 C21.5632667,18.5839938 21.6743333,18.6030303 21.7832222,18.6062937 C22.9401667,18.6351204 24.0960222,18.6797203 25.2518778,18.6851593 C25.8567556,18.6884227 26.4627222,18.6182595 27.0676,18.5872572 C27.3610556,18.5714841 27.5418111,18.7188811 27.5635889,18.9717949 C27.5842778,19.217094 27.4405444,19.3862471 27.1645111,19.4330225 C27.0567111,19.4520591 26.9467333,19.4596737 26.8367556,19.46892 C26.5503778,19.4955711 26.2650889,19.5200466 25.9531222,19.5477855 C27.2347444,23.3561772 28.5054778,27.130303 29.7892778,30.9452214 C29.8263,30.8761461 29.841,30.8581974 29.8469889,30.838073 C30.38,29.0638695 30.9200889,27.2918415 31.4438444,25.5149184 C31.7247778,24.5630925 31.7754111,23.5998446 31.5004667,22.6306138 C31.2843222,21.8648019 30.8705444,21.1985237 30.4796333,20.5153846 C30.2204778,20.0617716 29.9733,19.583683 29.8339222,19.0854701 C29.5502667,18.0645688 30.1203,17.0425796 31.0605556,16.7717172 C31.2375,16.7200466 31.4258778,16.7042735 31.6801333,16.6585859 Z M28.0127556,34.5246309 C26.9102556,31.510878 25.8142889,28.5096348 24.7166889,25.5089355 C24.6949111,25.5121989 24.6731333,25.5154623 24.6513556,25.5187257 C23.5989444,28.5738151 22.5465333,31.6289044 21.4952111,34.6812743 C22.8770111,35.3464646 26.5727,35.2561772 28.0127556,34.5246309 Z M19.8727667,34.0688423 C18.1757333,29.4255633 16.4977556,24.833411 14.8061667,20.201554 C12.4868333,25.2418803 14.6058111,31.5609169 19.8727667,34.0688423 Z M29.8518889,33.6342657 C29.8714889,33.6478632 29.89,33.6620047 29.9096,33.6756022 C32.5093222,32.0662005 34.2150667,29.793784 34.8836444,26.7930847 C35.4471444,24.254157 35.0834556,21.825641 33.8568222,19.5298368 C33.8339556,19.5679099 33.8350444,19.6043512 33.8383111,19.6391608 C33.9058222,20.3859363 33.8889444,21.1294483 33.7735222,21.8718726 C33.6352333,22.7546232 33.3379667,23.5873349 33.0439667,24.4254856 C32.2006222,26.8262626 31.3747,29.2313908 30.5417,31.6343434 C30.3114,32.3011655 30.0816444,32.9679876 29.8518889,33.6342657 Z" id="Shape" fill="#FFFFFF"></path>
                    </g>
                    <path d="M183,76 C183,76 141.030341,116.070303 181.845562,163.148438" id="Path-2" stroke="#A8A8A8" stroke-linecap="square" stroke-dasharray="1,1,8"></path>
                    <path d="M244,202 C244,202 197.612482,246.288229 242.724043,298.321957" id="Path-2-Copy" stroke="#A8A8A8" stroke-linecap="square" stroke-dasharray="1,1,8" transform="translate(233.500000, 250.160979) scale(-1, 1) translate(-233.500000, -250.160979) "></path>
                    <path d="M284.304994,348.528937 C284.304994,348.528937 237.917476,392.817167 283.029037,444.850894" id="Path-2-Copy-4" stroke="#A8A8A8" stroke-linecap="square" stroke-dasharray="1,1,8" transform="translate(273.804994, 396.689916) scale(-1, 1) rotate(-31.000000) translate(-273.804994, -396.689916) "></path>
                    <g id="if_Photoshop_289510" transform="translate(38.000000, 120.000000)" fill-rule="nonzero">
                        <g id="Frame" fill="#7EBCF9">
                            <rect id="Rectangle-path" x="0.109560878" y="0.108389344" width="54.7808782" height="52.7832213"></rect>
                        </g>
                        <g id="Background" transform="translate(4.281437, 4.344262)" fill="#30267E">
                            <rect id="Rectangle-path" x="0.000878243513" y="0.00173770492" width="46.3259182" height="44.3081086"></rect>
                        </g>
                        <g id="Shadow2" opacity="0.302" transform="translate(13.612774, 16.073770)" fill="#000000">
                            <g id="Group">
                                <polygon id="Shape" points="27.005988 5.97336066 20.4191617 7.81967213 11.9660679 0 2.5249501 0.977459016 2.19560878 9.44877049 0 21.5040984 17.7844311 32.5819672 36.996008 32.5819672 36.996008 13.25"></polygon>
                            </g>
                        </g>
                        <g id="Shadow_1_" opacity="0.302" transform="translate(4.281437, 4.344262)" fill="#000000">
                            <g id="Group">
                                <rect id="Rectangle-path" x="0.000878243513" y="0.000108606558" width="46.3259182" height="1.52027459"></rect>
                            </g>
                        </g>
                        <g id="Ps" transform="translate(13.502994, 14.987705)" fill="#7EBCF9">
                            <g id="Group">
                                <path d="M0.102644711,0.515663934 C1.57820359,0.250229508 3.62407186,0.0511536885 6.40766467,0.0511536885 C9.42607784,0.0511536885 11.6394711,0.681614754 13.0816567,1.87596107 C14.4230639,2.97093238 15.2951597,4.72938115 15.2951597,6.81962295 C15.2951597,8.94309836 14.6244012,10.7015471 13.3499601,11.896002 C11.7066567,13.5218422 9.12418164,14.2849119 6.20643713,14.2849119 C5.43511976,14.2849119 4.73076846,14.2516783 4.19416168,14.1521947 L4.19416168,22.5796291 L0.10253493,22.5796291 L0.10253493,0.515663934 L0.102644711,0.515663934 Z M4.19416168,10.933748 C4.69717565,11.0664652 5.36793413,11.0995902 6.20643713,11.0995902 C9.29181637,11.0995902 11.1699401,9.60646721 11.1699401,6.98546516 C11.1699401,4.49696311 9.42596806,3.16989959 6.5752994,3.16989959 C5.43500998,3.16989959 4.6300998,3.2694918 4.19416168,3.36897541 L4.19416168,10.933748 Z" id="Shape"></path>
                                <path d="M17.1393613,18.8303135 C18.0784232,19.394416 19.8558782,19.9915348 21.3315469,19.9915348 C23.1425948,19.9915348 23.947505,19.2615902 23.947505,18.1999611 C23.947505,17.1049898 23.2767465,16.5409959 21.2645808,15.8442848 C18.0785329,14.7494221 16.737016,13.0239898 16.770499,11.1329324 C16.770499,8.2795123 19.1515269,6.05655328 22.9413673,6.05655328 C24.7524152,6.05655328 26.3286427,6.52106352 27.2677046,7.01869877 L26.4627944,9.90524385 C25.7585529,9.50709221 24.450519,8.97622336 23.0084431,8.97622336 C21.5327745,8.97622336 20.7278643,9.67304303 20.7278643,10.6683135 C20.7278643,11.6968176 21.4991816,12.1945615 23.5786427,12.9245061 C26.52998,13.9862439 27.90498,15.4792582 27.9384631,17.868168 C27.9384631,20.7879467 25.6244012,22.9114221 21.2980639,22.9114221 C19.319491,22.9114221 17.5419261,22.4470205 16.3345609,21.7833258 L17.1393613,18.8303135 Z" id="Shape"></path>
                            </g>
                        </g>
                    </g>
                    <g id="if_Illustrator_289507" transform="translate(0.000000, 261.000000)" fill-rule="nonzero">
                        <g id="Frame_1_" fill="#FFAA2B">
                            <rect id="Rectangle-path" x="0.10358483" y="0.10429918" width="51.7928303" height="50.7914016"></rect>
                        </g>
                        <g id="Background_1_" transform="translate(4.047904, 4.180328)" fill="#3B3323">
                            <rect id="Rectangle-path" x="0.000830339322" y="0.00167213115" width="43.7990499" height="42.6361045"></rect>
                        </g>
                        <g id="Shadow2_1_" opacity="0.302" transform="translate(13.804391, 14.213115)" fill="#000000">
                            <g id="Group">
                                <path d="M23.3532934,0.104508197 C23.4567745,0.173901639 20.4471058,3.3442623 20.4471058,3.3442623 L24.3275928,6.42265574 L20.758483,9.09221311 L11.8323353,0.418032787 L7.57684631,1.46311475 L4.87824351,10.1372951 L0,21.9467213 L14.9461078,32.6065574 L34.0439122,32.6065574 L34.0439122,8.77868852 C34.0439122,8.77868852 23.2498124,0.0351147541 23.3532934,0.104508197 Z" id="Shape"></path>
                            </g>
                        </g>
                        <g id="Shadow_2_" opacity="0.302" transform="translate(4.047904, 4.180328)" fill="#000000">
                            <g id="Group">
                                <rect id="Rectangle-path" x="0.000830339322" y="0.000104508197" width="43.7990499" height="1.46290574"></rect>
                            </g>
                        </g>
                        <g id="Ai" transform="translate(13.804391, 14.108607)" fill="#FFAA2B">
                            <g id="Group">
                                <path d="M5.91689421,15.9430389 L4.07779641,22.0410922 L0.0508582834,22.0410922 L6.89980838,0.522436475 L11.878004,0.522436475 L18.8221317,22.0410922 L14.6365988,22.0410922 L12.7024271,15.9430389 L5.91689421,15.9430389 Z M12.0365988,12.9738566 L10.3560958,7.67403689 C9.94393613,6.36507172 9.59508982,4.89641803 9.27800399,3.65120287 L9.21458683,3.65120287 C8.897501,4.89641803 8.58041517,6.39684221 8.19991218,7.67403689 L6.55106587,12.9738566 L12.0365988,12.9738566 Z" id="Shape"></path>
                                <path d="M24.5291577,2.15056967 C24.5291577,3.33182582 23.6730778,4.25776844 22.3095569,4.25776844 C21.0095569,4.25776844 20.153477,3.33193033 20.153477,2.15056967 C20.153477,0.937334016 21.0413174,0.0114959016 22.3413174,0.0114959016 C23.6730778,0.0114959016 24.4973972,0.937334016 24.5291577,2.15056967 Z M20.375489,22.0409877 L20.375489,6.49257172 L24.3072495,6.49257172 L24.3072495,22.0409877 L20.375489,22.0409877 Z" id="Shape"></path>
                            </g>
                        </g>
                    </g>
                    <g id="if_sketch-social-network-brand-logo_1840151" transform="translate(24.000000, 410.000000)" fill-rule="nonzero">
                        <g id="Group" transform="translate(0.427964, 0.000000)" fill="#FAE6F5">
                            <path d="M4.31398403,1.71428571 L3.45805604,1.71428571 L3.45805604,0.857142857 C3.45805604,0.383378571 3.07481429,0 2.60212806,0 C2.12944183,0 1.74620008,0.383378571 1.74620008,0.857142857 L1.74620008,1.71428571 L0.890272093,1.71428571 C0.417585865,1.71428571 0.0343441103,2.09766429 0.0343441103,2.57142857 C0.0343441103,3.04519286 0.417585865,3.42857143 0.890272093,3.42857143 L1.74620008,3.42857143 L1.74620008,4.28571429 C1.74620008,4.75947857 2.12944183,5.14285714 2.60212806,5.14285714 C3.07481429,5.14285714 3.45805604,4.75947857 3.45805604,4.28571429 L3.45805604,3.42857143 L4.31398403,3.42857143 C4.78667025,3.42857143 5.16991201,3.04519286 5.16991201,2.57142857 C5.16991201,2.09766429 4.78667025,1.71428571 4.31398403,1.71428571 Z" id="Shape"></path>
                            <path d="M12.8732639,1.71428571 L12.0173359,1.71428571 L12.0173359,0.857142857 C12.0173359,0.383378571 11.6340941,0 11.1614079,0 C10.6887217,0 10.3054799,0.383378571 10.3054799,0.857142857 L10.3054799,1.71428571 L9.44955192,1.71428571 C8.9768657,1.71428571 8.59362394,2.09766429 8.59362394,2.57142857 C8.59362394,3.04519286 8.9768657,3.42857143 9.44955192,3.42857143 L10.3054799,3.42857143 L10.3054799,4.28571429 C10.3054799,4.75947857 10.6887217,5.14285714 11.1614079,5.14285714 C11.6340941,5.14285714 12.0173359,4.75947857 12.0173359,4.28571429 L12.0173359,3.42857143 L12.8732639,3.42857143 C13.3459501,3.42857143 13.7291918,3.04519286 13.7291918,2.57142857 C13.7291918,2.09766429 13.3459501,1.71428571 12.8732639,1.71428571 Z" id="Shape"></path>
                            <path d="M21.4325437,1.71428571 L20.5766157,1.71428571 L20.5766157,0.857142857 C20.5766157,0.383378571 20.193374,0 19.7206877,0 C19.2480015,0 18.8647597,0.383378571 18.8647597,0.857142857 L18.8647597,1.71428571 L18.0088318,1.71428571 C17.5361455,1.71428571 17.1529038,2.09766429 17.1529038,2.57142857 C17.1529038,3.04519286 17.5361455,3.42857143 18.0088318,3.42857143 L18.8647597,3.42857143 L18.8647597,4.28571429 C18.8647597,4.75947857 19.2480015,5.14285714 19.7206877,5.14285714 C20.193374,5.14285714 20.5766157,4.75947857 20.5766157,4.28571429 L20.5766157,3.42857143 L21.4325437,3.42857143 C21.9052299,3.42857143 22.2884717,3.04519286 22.2884717,2.57142857 C22.2884717,2.09766429 21.9052299,1.71428571 21.4325437,1.71428571 Z" id="Shape"></path>
                            <path d="M29.9918235,1.71428571 L29.1358955,1.71428571 L29.1358955,0.857142857 C29.1358955,0.383378571 28.7526538,0 28.2799676,0 C27.8072813,0 27.4240396,0.383378571 27.4240396,0.857142857 L27.4240396,1.71428571 L26.5681116,1.71428571 C26.0954254,1.71428571 25.7121836,2.09766429 25.7121836,2.57142857 C25.7121836,3.04519286 26.0954254,3.42857143 26.5681116,3.42857143 L27.4240396,3.42857143 L27.4240396,4.28571429 C27.4240396,4.75947857 27.8072813,5.14285714 28.2799676,5.14285714 C28.7526538,5.14285714 29.1358955,4.75947857 29.1358955,4.28571429 L29.1358955,3.42857143 L29.9918235,3.42857143 C30.4645097,3.42857143 30.8477515,3.04519286 30.8477515,2.57142857 C30.8477515,2.09766429 30.4645097,1.71428571 29.9918235,1.71428571 Z" id="Shape"></path>
                            <path d="M38.5511034,1.71428571 L37.6951754,1.71428571 L37.6951754,0.857142857 C37.6951754,0.383378571 37.3119336,0 36.8392474,0 C36.3665612,0 35.9833194,0.383378571 35.9833194,0.857142857 L35.9833194,1.71428571 L35.1273914,1.71428571 C34.6547052,1.71428571 34.2714634,2.09766429 34.2714634,2.57142857 C34.2714634,3.04519286 34.6547052,3.42857143 35.1273914,3.42857143 L35.9833194,3.42857143 L35.9833194,4.28571429 C35.9833194,4.75947857 36.3665612,5.14285714 36.8392474,5.14285714 C37.3119336,5.14285714 37.6951754,4.75947857 37.6951754,4.28571429 L37.6951754,3.42857143 L38.5511034,3.42857143 C39.0237896,3.42857143 39.4070313,3.04519286 39.4070313,2.57142857 C39.4070313,2.09766429 39.0237896,1.71428571 38.5511034,1.71428571 Z" id="Shape"></path>
                            <path d="M43.6866713,3.42857143 L44.5425992,3.42857143 L44.5425992,4.28571429 C44.5425992,4.75947857 44.925841,5.14285714 45.3985272,5.14285714 C45.8712134,5.14285714 46.2544552,4.75947857 46.2544552,4.28571429 L46.2544552,3.42857143 L47.1103832,3.42857143 C47.5830694,3.42857143 47.9663112,3.04519286 47.9663112,2.57142857 C47.9663112,2.09766429 47.5830694,1.71428571 47.1103832,1.71428571 L46.2544552,1.71428571 L46.2544552,0.857142857 C46.2544552,0.383378571 45.8712134,0 45.3985272,0 C44.925841,0 44.5425992,0.383378571 44.5425992,0.857142857 L44.5425992,1.71428571 L43.6866713,1.71428571 C43.213985,1.71428571 42.8307433,2.09766429 42.8307433,2.57142857 C42.8307433,3.04519286 43.213985,3.42857143 43.6866713,3.42857143 Z" id="Shape"></path>
                            <path d="M4.31398403,10.2857143 L3.45805604,10.2857143 L3.45805604,9.42857143 C3.45805604,8.95480714 3.07481429,8.57142857 2.60212806,8.57142857 C2.12944183,8.57142857 1.74620008,8.95480714 1.74620008,9.42857143 L1.74620008,10.2857143 L0.890272093,10.2857143 C0.417585865,10.2857143 0.0343441103,10.6690929 0.0343441103,11.1428571 C0.0343441103,11.6166214 0.417585865,12 0.890272093,12 L1.74620008,12 L1.74620008,12.8571429 C1.74620008,13.3309071 2.12944183,13.7142857 2.60212806,13.7142857 C3.07481429,13.7142857 3.45805604,13.3309071 3.45805604,12.8571429 L3.45805604,12 L4.31398403,12 C4.78667025,12 5.16991201,11.6166214 5.16991201,11.1428571 C5.16991201,10.6690929 4.78667025,10.2857143 4.31398403,10.2857143 Z" id="Shape"></path>
                            <path d="M12.8732639,10.2857143 L12.0173359,10.2857143 L12.0173359,9.42857143 C12.0173359,8.95480714 11.6340941,8.57142857 11.1614079,8.57142857 C10.6887217,8.57142857 10.3054799,8.95480714 10.3054799,9.42857143 L10.3054799,10.2857143 L9.44955192,10.2857143 C8.9768657,10.2857143 8.59362394,10.6690929 8.59362394,11.1428571 C8.59362394,11.6166214 8.9768657,12 9.44955192,12 L10.3054799,12 L10.3054799,12.8571429 C10.3054799,13.3309071 10.6887217,13.7142857 11.1614079,13.7142857 C11.6340941,13.7142857 12.0173359,13.3309071 12.0173359,12.8571429 L12.0173359,12 L12.8732639,12 C13.3459501,12 13.7291918,11.6166214 13.7291918,11.1428571 C13.7291918,10.6690929 13.3459501,10.2857143 12.8732639,10.2857143 Z" id="Shape"></path>
                            <path d="M21.4325437,10.2857143 L20.5766157,10.2857143 L20.5766157,9.42857143 C20.5766157,8.95480714 20.193374,8.57142857 19.7206877,8.57142857 C19.2480015,8.57142857 18.8647597,8.95480714 18.8647597,9.42857143 L18.8647597,10.2857143 L18.0088318,10.2857143 C17.5361455,10.2857143 17.1529038,10.6690929 17.1529038,11.1428571 C17.1529038,11.6166214 17.5361455,12 18.0088318,12 L18.8647597,12 L18.8647597,12.8571429 C18.8647597,13.3309071 19.2480015,13.7142857 19.7206877,13.7142857 C20.193374,13.7142857 20.5766157,13.3309071 20.5766157,12.8571429 L20.5766157,12 L21.4325437,12 C21.9052299,12 22.2884717,11.6166214 22.2884717,11.1428571 C22.2884717,10.6690929 21.9052299,10.2857143 21.4325437,10.2857143 Z" id="Shape"></path>
                            <path d="M29.9918235,10.2857143 L29.1358955,10.2857143 L29.1358955,9.42857143 C29.1358955,8.95480714 28.7526538,8.57142857 28.2799676,8.57142857 C27.8072813,8.57142857 27.4240396,8.95480714 27.4240396,9.42857143 L27.4240396,10.2857143 L26.5681116,10.2857143 C26.0954254,10.2857143 25.7121836,10.6690929 25.7121836,11.1428571 C25.7121836,11.6166214 26.0954254,12 26.5681116,12 L27.4240396,12 L27.4240396,12.8571429 C27.4240396,13.3309071 27.8072813,13.7142857 28.2799676,13.7142857 C28.7526538,13.7142857 29.1358955,13.3309071 29.1358955,12.8571429 L29.1358955,12 L29.9918235,12 C30.4645097,12 30.8477515,11.6166214 30.8477515,11.1428571 C30.8477515,10.6690929 30.4645097,10.2857143 29.9918235,10.2857143 Z" id="Shape"></path>
                            <path d="M38.5511034,10.2857143 L37.6951754,10.2857143 L37.6951754,9.42857143 C37.6951754,8.95480714 37.3119336,8.57142857 36.8392474,8.57142857 C36.3665612,8.57142857 35.9833194,8.95480714 35.9833194,9.42857143 L35.9833194,10.2857143 L35.1273914,10.2857143 C34.6547052,10.2857143 34.2714634,10.6690929 34.2714634,11.1428571 C34.2714634,11.6166214 34.6547052,12 35.1273914,12 L35.9833194,12 L35.9833194,12.8571429 C35.9833194,13.3309071 36.3665612,13.7142857 36.8392474,13.7142857 C37.3119336,13.7142857 37.6951754,13.3309071 37.6951754,12.8571429 L37.6951754,12 L38.5511034,12 C39.0237896,12 39.4070313,11.6166214 39.4070313,11.1428571 C39.4070313,10.6690929 39.0237896,10.2857143 38.5511034,10.2857143 Z" id="Shape"></path>
                            <path d="M47.1103832,10.2857143 L46.2544552,10.2857143 L46.2544552,9.42857143 C46.2544552,8.95480714 45.8712134,8.57142857 45.3985272,8.57142857 C44.925841,8.57142857 44.5425992,8.95480714 44.5425992,9.42857143 L44.5425992,10.2857143 L43.6866713,10.2857143 C43.213985,10.2857143 42.8307433,10.6690929 42.8307433,11.1428571 C42.8307433,11.6166214 43.213985,12 43.6866713,12 L44.5425992,12 L44.5425992,12.8571429 C44.5425992,13.3309071 44.925841,13.7142857 45.3985272,13.7142857 C45.8712134,13.7142857 46.2544552,13.3309071 46.2544552,12.8571429 L46.2544552,12 L47.1103832,12 C47.5830694,12 47.9663112,11.6166214 47.9663112,11.1428571 C47.9663112,10.6690929 47.5830694,10.2857143 47.1103832,10.2857143 Z" id="Shape"></path>
                            <path d="M4.31398403,18.8571429 L3.45805604,18.8571429 L3.45805604,18 C3.45805604,17.5262357 3.07481429,17.1428571 2.60212806,17.1428571 C2.12944183,17.1428571 1.74620008,17.5262357 1.74620008,18 L1.74620008,18.8571429 L0.890272093,18.8571429 C0.417585865,18.8571429 0.0343441103,19.2405214 0.0343441103,19.7142857 C0.0343441103,20.18805 0.417585865,20.5714286 0.890272093,20.5714286 L1.74620008,20.5714286 L1.74620008,21.4285714 C1.74620008,21.9023357 2.12944183,22.2857143 2.60212806,22.2857143 C3.07481429,22.2857143 3.45805604,21.9023357 3.45805604,21.4285714 L3.45805604,20.5714286 L4.31398403,20.5714286 C4.78667025,20.5714286 5.16991201,20.18805 5.16991201,19.7142857 C5.16991201,19.2405214 4.78667025,18.8571429 4.31398403,18.8571429 Z" id="Shape"></path>
                            <path d="M12.8732639,18.8571429 L12.0173359,18.8571429 L12.0173359,18 C12.0173359,17.5262357 11.6340941,17.1428571 11.1614079,17.1428571 C10.6887217,17.1428571 10.3054799,17.5262357 10.3054799,18 L10.3054799,18.8571429 L9.44955192,18.8571429 C8.9768657,18.8571429 8.59362394,19.2405214 8.59362394,19.7142857 C8.59362394,20.18805 8.9768657,20.5714286 9.44955192,20.5714286 L10.3054799,20.5714286 L10.3054799,21.4285714 C10.3054799,21.9023357 10.6887217,22.2857143 11.1614079,22.2857143 C11.6340941,22.2857143 12.0173359,21.9023357 12.0173359,21.4285714 L12.0173359,20.5714286 L12.8732639,20.5714286 C13.3459501,20.5714286 13.7291918,20.18805 13.7291918,19.7142857 C13.7291918,19.2405214 13.3459501,18.8571429 12.8732639,18.8571429 Z" id="Shape"></path>
                            <path d="M21.4325437,18.8571429 L20.5766157,18.8571429 L20.5766157,18 C20.5766157,17.5262357 20.193374,17.1428571 19.7206877,17.1428571 C19.2480015,17.1428571 18.8647597,17.5262357 18.8647597,18 L18.8647597,18.8571429 L18.0088318,18.8571429 C17.5361455,18.8571429 17.1529038,19.2405214 17.1529038,19.7142857 C17.1529038,20.18805 17.5361455,20.5714286 18.0088318,20.5714286 L18.8647597,20.5714286 L18.8647597,21.4285714 C18.8647597,21.9023357 19.2480015,22.2857143 19.7206877,22.2857143 C20.193374,22.2857143 20.5766157,21.9023357 20.5766157,21.4285714 L20.5766157,20.5714286 L21.4325437,20.5714286 C21.9052299,20.5714286 22.2884717,20.18805 22.2884717,19.7142857 C22.2884717,19.2405214 21.9052299,18.8571429 21.4325437,18.8571429 Z" id="Shape"></path>
                            <path d="M29.9918235,18.8571429 L29.1358955,18.8571429 L29.1358955,18 C29.1358955,17.5262357 28.7526538,17.1428571 28.2799676,17.1428571 C27.8072813,17.1428571 27.4240396,17.5262357 27.4240396,18 L27.4240396,18.8571429 L26.5681116,18.8571429 C26.0954254,18.8571429 25.7121836,19.2405214 25.7121836,19.7142857 C25.7121836,20.18805 26.0954254,20.5714286 26.5681116,20.5714286 L27.4240396,20.5714286 L27.4240396,21.4285714 C27.4240396,21.9023357 27.8072813,22.2857143 28.2799676,22.2857143 C28.7526538,22.2857143 29.1358955,21.9023357 29.1358955,21.4285714 L29.1358955,20.5714286 L29.9918235,20.5714286 C30.4645097,20.5714286 30.8477515,20.18805 30.8477515,19.7142857 C30.8477515,19.2405214 30.4645097,18.8571429 29.9918235,18.8571429 Z" id="Shape"></path>
                            <path d="M38.5511034,18.8571429 L37.6951754,18.8571429 L37.6951754,18 C37.6951754,17.5262357 37.3119336,17.1428571 36.8392474,17.1428571 C36.3665612,17.1428571 35.9833194,17.5262357 35.9833194,18 L35.9833194,18.8571429 L35.1273914,18.8571429 C34.6547052,18.8571429 34.2714634,19.2405214 34.2714634,19.7142857 C34.2714634,20.18805 34.6547052,20.5714286 35.1273914,20.5714286 L35.9833194,20.5714286 L35.9833194,21.4285714 C35.9833194,21.9023357 36.3665612,22.2857143 36.8392474,22.2857143 C37.3119336,22.2857143 37.6951754,21.9023357 37.6951754,21.4285714 L37.6951754,20.5714286 L38.5511034,20.5714286 C39.0237896,20.5714286 39.4070313,20.18805 39.4070313,19.7142857 C39.4070313,19.2405214 39.0237896,18.8571429 38.5511034,18.8571429 Z" id="Shape"></path>
                            <path d="M47.1103832,18.8571429 L46.2544552,18.8571429 L46.2544552,18 C46.2544552,17.5262357 45.8712134,17.1428571 45.3985272,17.1428571 C44.925841,17.1428571 44.5425992,17.5262357 44.5425992,18 L44.5425992,18.8571429 L43.6866713,18.8571429 C43.213985,18.8571429 42.8307433,19.2405214 42.8307433,19.7142857 C42.8307433,20.18805 43.213985,20.5714286 43.6866713,20.5714286 L44.5425992,20.5714286 L44.5425992,21.4285714 C44.5425992,21.9023357 44.925841,22.2857143 45.3985272,22.2857143 C45.8712134,22.2857143 46.2544552,21.9023357 46.2544552,21.4285714 L46.2544552,20.5714286 L47.1103832,20.5714286 C47.5830694,20.5714286 47.9663112,20.18805 47.9663112,19.7142857 C47.9663112,19.2405214 47.5830694,18.8571429 47.1103832,18.8571429 Z" id="Shape"></path>
                            <path d="M4.31398403,27.4285714 L3.45805604,27.4285714 L3.45805604,26.5714286 C3.45805604,26.0976643 3.07481429,25.7142857 2.60212806,25.7142857 C2.12944183,25.7142857 1.74620008,26.0976643 1.74620008,26.5714286 L1.74620008,27.4285714 L0.890272093,27.4285714 C0.417585865,27.4285714 0.0343441103,27.81195 0.0343441103,28.2857143 C0.0343441103,28.7594786 0.417585865,29.1428571 0.890272093,29.1428571 L1.74620008,29.1428571 L1.74620008,30 C1.74620008,30.4737643 2.12944183,30.8571429 2.60212806,30.8571429 C3.07481429,30.8571429 3.45805604,30.4737643 3.45805604,30 L3.45805604,29.1428571 L4.31398403,29.1428571 C4.78667025,29.1428571 5.16991201,28.7594786 5.16991201,28.2857143 C5.16991201,27.81195 4.78667025,27.4285714 4.31398403,27.4285714 Z" id="Shape"></path>
                            <path d="M12.8732639,27.4285714 L12.0173359,27.4285714 L12.0173359,26.5714286 C12.0173359,26.0976643 11.6340941,25.7142857 11.1614079,25.7142857 C10.6887217,25.7142857 10.3054799,26.0976643 10.3054799,26.5714286 L10.3054799,27.4285714 L9.44955192,27.4285714 C8.9768657,27.4285714 8.59362394,27.81195 8.59362394,28.2857143 C8.59362394,28.7594786 8.9768657,29.1428571 9.44955192,29.1428571 L10.3054799,29.1428571 L10.3054799,30 C10.3054799,30.4737643 10.6887217,30.8571429 11.1614079,30.8571429 C11.6340941,30.8571429 12.0173359,30.4737643 12.0173359,30 L12.0173359,29.1428571 L12.8732639,29.1428571 C13.3459501,29.1428571 13.7291918,28.7594786 13.7291918,28.2857143 C13.7291918,27.81195 13.3459501,27.4285714 12.8732639,27.4285714 Z" id="Shape"></path>
                            <path d="M21.4325437,27.4285714 L20.5766157,27.4285714 L20.5766157,26.5714286 C20.5766157,26.0976643 20.193374,25.7142857 19.7206877,25.7142857 C19.2480015,25.7142857 18.8647597,26.0976643 18.8647597,26.5714286 L18.8647597,27.4285714 L18.0088318,27.4285714 C17.5361455,27.4285714 17.1529038,27.81195 17.1529038,28.2857143 C17.1529038,28.7594786 17.5361455,29.1428571 18.0088318,29.1428571 L18.8647597,29.1428571 L18.8647597,30 C18.8647597,30.4737643 19.2480015,30.8571429 19.7206877,30.8571429 C20.193374,30.8571429 20.5766157,30.4737643 20.5766157,30 L20.5766157,29.1428571 L21.4325437,29.1428571 C21.9052299,29.1428571 22.2884717,28.7594786 22.2884717,28.2857143 C22.2884717,27.81195 21.9052299,27.4285714 21.4325437,27.4285714 Z" id="Shape"></path>
                            <path d="M29.9918235,27.4285714 L29.1358955,27.4285714 L29.1358955,26.5714286 C29.1358955,26.0976643 28.7526538,25.7142857 28.2799676,25.7142857 C27.8072813,25.7142857 27.4240396,26.0976643 27.4240396,26.5714286 L27.4240396,27.4285714 L26.5681116,27.4285714 C26.0954254,27.4285714 25.7121836,27.81195 25.7121836,28.2857143 C25.7121836,28.7594786 26.0954254,29.1428571 26.5681116,29.1428571 L27.4240396,29.1428571 L27.4240396,30 C27.4240396,30.4737643 27.8072813,30.8571429 28.2799676,30.8571429 C28.7526538,30.8571429 29.1358955,30.4737643 29.1358955,30 L29.1358955,29.1428571 L29.9918235,29.1428571 C30.4645097,29.1428571 30.8477515,28.7594786 30.8477515,28.2857143 C30.8477515,27.81195 30.4645097,27.4285714 29.9918235,27.4285714 Z" id="Shape"></path>
                            <path d="M38.5511034,27.4285714 L37.6951754,27.4285714 L37.6951754,26.5714286 C37.6951754,26.0976643 37.3119336,25.7142857 36.8392474,25.7142857 C36.3665612,25.7142857 35.9833194,26.0976643 35.9833194,26.5714286 L35.9833194,27.4285714 L35.1273914,27.4285714 C34.6547052,27.4285714 34.2714634,27.81195 34.2714634,28.2857143 C34.2714634,28.7594786 34.6547052,29.1428571 35.1273914,29.1428571 L35.9833194,29.1428571 L35.9833194,30 C35.9833194,30.4737643 36.3665612,30.8571429 36.8392474,30.8571429 C37.3119336,30.8571429 37.6951754,30.4737643 37.6951754,30 L37.6951754,29.1428571 L38.5511034,29.1428571 C39.0237896,29.1428571 39.4070313,28.7594786 39.4070313,28.2857143 C39.4070313,27.81195 39.0237896,27.4285714 38.5511034,27.4285714 Z" id="Shape"></path>
                            <path d="M47.1103832,27.4285714 L46.2544552,27.4285714 L46.2544552,26.5714286 C46.2544552,26.0976643 45.8712134,25.7142857 45.3985272,25.7142857 C44.925841,25.7142857 44.5425992,26.0976643 44.5425992,26.5714286 L44.5425992,27.4285714 L43.6866713,27.4285714 C43.213985,27.4285714 42.8307433,27.81195 42.8307433,28.2857143 C42.8307433,28.7594786 43.213985,29.1428571 43.6866713,29.1428571 L44.5425992,29.1428571 L44.5425992,30 C44.5425992,30.4737643 44.925841,30.8571429 45.3985272,30.8571429 C45.8712134,30.8571429 46.2544552,30.4737643 46.2544552,30 L46.2544552,29.1428571 L47.1103832,29.1428571 C47.5830694,29.1428571 47.9663112,28.7594786 47.9663112,28.2857143 C47.9663112,27.81195 47.5830694,27.4285714 47.1103832,27.4285714 Z" id="Shape"></path>
                            <path d="M4.31398403,36 L3.45805604,36 L3.45805604,35.1428571 C3.45805604,34.6690929 3.07481429,34.2857143 2.60212806,34.2857143 C2.12944183,34.2857143 1.74620008,34.6690929 1.74620008,35.1428571 L1.74620008,36 L0.890272093,36 C0.417585865,36 0.0343441103,36.3833786 0.0343441103,36.8571429 C0.0343441103,37.3309071 0.417585865,37.7142857 0.890272093,37.7142857 L1.74620008,37.7142857 L1.74620008,38.5714286 C1.74620008,39.0451929 2.12944183,39.4285714 2.60212806,39.4285714 C3.07481429,39.4285714 3.45805604,39.0451929 3.45805604,38.5714286 L3.45805604,37.7142857 L4.31398403,37.7142857 C4.78667025,37.7142857 5.16991201,37.3309071 5.16991201,36.8571429 C5.16991201,36.3833786 4.78667025,36 4.31398403,36 Z" id="Shape"></path>
                            <path d="M12.8732639,36 L12.0173359,36 L12.0173359,35.1428571 C12.0173359,34.6690929 11.6340941,34.2857143 11.1614079,34.2857143 C10.6887217,34.2857143 10.3054799,34.6690929 10.3054799,35.1428571 L10.3054799,36 L9.44955192,36 C8.9768657,36 8.59362394,36.3833786 8.59362394,36.8571429 C8.59362394,37.3309071 8.9768657,37.7142857 9.44955192,37.7142857 L10.3054799,37.7142857 L10.3054799,38.5714286 C10.3054799,39.0451929 10.6887217,39.4285714 11.1614079,39.4285714 C11.6340941,39.4285714 12.0173359,39.0451929 12.0173359,38.5714286 L12.0173359,37.7142857 L12.8732639,37.7142857 C13.3459501,37.7142857 13.7291918,37.3309071 13.7291918,36.8571429 C13.7291918,36.3833786 13.3459501,36 12.8732639,36 Z" id="Shape"></path>
                            <path d="M21.4325437,36 L20.5766157,36 L20.5766157,35.1428571 C20.5766157,34.6690929 20.193374,34.2857143 19.7206877,34.2857143 C19.2480015,34.2857143 18.8647597,34.6690929 18.8647597,35.1428571 L18.8647597,36 L18.0088318,36 C17.5361455,36 17.1529038,36.3833786 17.1529038,36.8571429 C17.1529038,37.3309071 17.5361455,37.7142857 18.0088318,37.7142857 L18.8647597,37.7142857 L18.8647597,38.5714286 C18.8647597,39.0451929 19.2480015,39.4285714 19.7206877,39.4285714 C20.193374,39.4285714 20.5766157,39.0451929 20.5766157,38.5714286 L20.5766157,37.7142857 L21.4325437,37.7142857 C21.9052299,37.7142857 22.2884717,37.3309071 22.2884717,36.8571429 C22.2884717,36.3833786 21.9052299,36 21.4325437,36 Z" id="Shape"></path>
                            <path d="M29.9918235,36 L29.1358955,36 L29.1358955,35.1428571 C29.1358955,34.6690929 28.7526538,34.2857143 28.2799676,34.2857143 C27.8072813,34.2857143 27.4240396,34.6690929 27.4240396,35.1428571 L27.4240396,36 L26.5681116,36 C26.0954254,36 25.7121836,36.3833786 25.7121836,36.8571429 C25.7121836,37.3309071 26.0954254,37.7142857 26.5681116,37.7142857 L27.4240396,37.7142857 L27.4240396,38.5714286 C27.4240396,39.0451929 27.8072813,39.4285714 28.2799676,39.4285714 C28.7526538,39.4285714 29.1358955,39.0451929 29.1358955,38.5714286 L29.1358955,37.7142857 L29.9918235,37.7142857 C30.4645097,37.7142857 30.8477515,37.3309071 30.8477515,36.8571429 C30.8477515,36.3833786 30.4645097,36 29.9918235,36 Z" id="Shape"></path>
                            <path d="M38.5511034,36 L37.6951754,36 L37.6951754,35.1428571 C37.6951754,34.6690929 37.3119336,34.2857143 36.8392474,34.2857143 C36.3665612,34.2857143 35.9833194,34.6690929 35.9833194,35.1428571 L35.9833194,36 L35.1273914,36 C34.6547052,36 34.2714634,36.3833786 34.2714634,36.8571429 C34.2714634,37.3309071 34.6547052,37.7142857 35.1273914,37.7142857 L35.9833194,37.7142857 L35.9833194,38.5714286 C35.9833194,39.0451929 36.3665612,39.4285714 36.8392474,39.4285714 C37.3119336,39.4285714 37.6951754,39.0451929 37.6951754,38.5714286 L37.6951754,37.7142857 L38.5511034,37.7142857 C39.0237896,37.7142857 39.4070313,37.3309071 39.4070313,36.8571429 C39.4070313,36.3833786 39.0237896,36 38.5511034,36 Z" id="Shape"></path>
                            <path d="M47.1103832,36 L46.2544552,36 L46.2544552,35.1428571 C46.2544552,34.6690929 45.8712134,34.2857143 45.3985272,34.2857143 C44.925841,34.2857143 44.5425992,34.6690929 44.5425992,35.1428571 L44.5425992,36 L43.6866713,36 C43.213985,36 42.8307433,36.3833786 42.8307433,36.8571429 C42.8307433,37.3309071 43.213985,37.7142857 43.6866713,37.7142857 L44.5425992,37.7142857 L44.5425992,38.5714286 C44.5425992,39.0451929 44.925841,39.4285714 45.3985272,39.4285714 C45.8712134,39.4285714 46.2544552,39.0451929 46.2544552,38.5714286 L46.2544552,37.7142857 L47.1103832,37.7142857 C47.5830694,37.7142857 47.9663112,37.3309071 47.9663112,36.8571429 C47.9663112,36.3833786 47.5830694,36 47.1103832,36 Z" id="Shape"></path>
                            <path d="M4.31398403,44.5714286 L3.45805604,44.5714286 L3.45805604,43.7142857 C3.45805604,43.2405214 3.07481429,42.8571429 2.60212806,42.8571429 C2.12944183,42.8571429 1.74620008,43.2405214 1.74620008,43.7142857 L1.74620008,44.5714286 L0.890272093,44.5714286 C0.417585865,44.5714286 0.0343441103,44.9548071 0.0343441103,45.4285714 C0.0343441103,45.9023357 0.417585865,46.2857143 0.890272093,46.2857143 L1.74620008,46.2857143 L1.74620008,47.1428571 C1.74620008,47.6166214 2.12944183,48 2.60212806,48 C3.07481429,48 3.45805604,47.6166214 3.45805604,47.1428571 L3.45805604,46.2857143 L4.31398403,46.2857143 C4.78667025,46.2857143 5.16991201,45.9023357 5.16991201,45.4285714 C5.16991201,44.9548071 4.78667025,44.5714286 4.31398403,44.5714286 Z" id="Shape"></path>
                            <path d="M12.8732639,44.5714286 L12.0173359,44.5714286 L12.0173359,43.7142857 C12.0173359,43.2405214 11.6340941,42.8571429 11.1614079,42.8571429 C10.6887217,42.8571429 10.3054799,43.2405214 10.3054799,43.7142857 L10.3054799,44.5714286 L9.44955192,44.5714286 C8.9768657,44.5714286 8.59362394,44.9548071 8.59362394,45.4285714 C8.59362394,45.9023357 8.9768657,46.2857143 9.44955192,46.2857143 L10.3054799,46.2857143 L10.3054799,47.1428571 C10.3054799,47.6166214 10.6887217,48 11.1614079,48 C11.6340941,48 12.0173359,47.6166214 12.0173359,47.1428571 L12.0173359,46.2857143 L12.8732639,46.2857143 C13.3459501,46.2857143 13.7291918,45.9023357 13.7291918,45.4285714 C13.7291918,44.9548071 13.3459501,44.5714286 12.8732639,44.5714286 Z" id="Shape"></path>
                            <path d="M21.4325437,44.5714286 L20.5766157,44.5714286 L20.5766157,43.7142857 C20.5766157,43.2405214 20.193374,42.8571429 19.7206877,42.8571429 C19.2480015,42.8571429 18.8647597,43.2405214 18.8647597,43.7142857 L18.8647597,44.5714286 L18.0088318,44.5714286 C17.5361455,44.5714286 17.1529038,44.9548071 17.1529038,45.4285714 C17.1529038,45.9023357 17.5361455,46.2857143 18.0088318,46.2857143 L18.8647597,46.2857143 L18.8647597,47.1428571 C18.8647597,47.6166214 19.2480015,48 19.7206877,48 C20.193374,48 20.5766157,47.6166214 20.5766157,47.1428571 L20.5766157,46.2857143 L21.4325437,46.2857143 C21.9052299,46.2857143 22.2884717,45.9023357 22.2884717,45.4285714 C22.2884717,44.9548071 21.9052299,44.5714286 21.4325437,44.5714286 Z" id="Shape"></path>
                            <path d="M29.9918235,44.5714286 L29.1358955,44.5714286 L29.1358955,43.7142857 C29.1358955,43.2405214 28.7526538,42.8571429 28.2799676,42.8571429 C27.8072813,42.8571429 27.4240396,43.2405214 27.4240396,43.7142857 L27.4240396,44.5714286 L26.5681116,44.5714286 C26.0954254,44.5714286 25.7121836,44.9548071 25.7121836,45.4285714 C25.7121836,45.9023357 26.0954254,46.2857143 26.5681116,46.2857143 L27.4240396,46.2857143 L27.4240396,47.1428571 C27.4240396,47.6166214 27.8072813,48 28.2799676,48 C28.7526538,48 29.1358955,47.6166214 29.1358955,47.1428571 L29.1358955,46.2857143 L29.9918235,46.2857143 C30.4645097,46.2857143 30.8477515,45.9023357 30.8477515,45.4285714 C30.8477515,44.9548071 30.4645097,44.5714286 29.9918235,44.5714286 Z" id="Shape"></path>
                            <path d="M38.5511034,44.5714286 L37.6951754,44.5714286 L37.6951754,43.7142857 C37.6951754,43.2405214 37.3119336,42.8571429 36.8392474,42.8571429 C36.3665612,42.8571429 35.9833194,43.2405214 35.9833194,43.7142857 L35.9833194,44.5714286 L35.1273914,44.5714286 C34.6547052,44.5714286 34.2714634,44.9548071 34.2714634,45.4285714 C34.2714634,45.9023357 34.6547052,46.2857143 35.1273914,46.2857143 L35.9833194,46.2857143 L35.9833194,47.1428571 C35.9833194,47.6166214 36.3665612,48 36.8392474,48 C37.3119336,48 37.6951754,47.6166214 37.6951754,47.1428571 L37.6951754,46.2857143 L38.5511034,46.2857143 C39.0237896,46.2857143 39.4070313,45.9023357 39.4070313,45.4285714 C39.4070313,44.9548071 39.0237896,44.5714286 38.5511034,44.5714286 Z" id="Shape"></path>
                            <path d="M47.1103832,44.5714286 L46.2544552,44.5714286 L46.2544552,43.7142857 C46.2544552,43.2405214 45.8712134,42.8571429 45.3985272,42.8571429 C44.925841,42.8571429 44.5425992,43.2405214 44.5425992,43.7142857 L44.5425992,44.5714286 L43.6866713,44.5714286 C43.213985,44.5714286 42.8307433,44.9548071 42.8307433,45.4285714 C42.8307433,45.9023357 43.213985,46.2857143 43.6866713,46.2857143 L44.5425992,46.2857143 L44.5425992,47.1428571 C44.5425992,47.6166214 44.925841,48 45.3985272,48 C45.8712134,48 46.2544552,47.6166214 46.2544552,47.1428571 L46.2544552,46.2857143 L47.1103832,46.2857143 C47.5830694,46.2857143 47.9663112,45.9023357 47.9663112,45.4285714 C47.9663112,44.9548071 47.5830694,44.5714286 47.1103832,44.5714286 Z" id="Shape"></path>
                        </g>
                        <path d="M47.9003405,15.2930143 C47.9052407,15.2712429 47.9133506,15.2513143 47.916539,15.2292429 C47.9303836,15.1331357 47.9280298,15.0360857 47.90875,14.9398929 C47.9042136,14.9171357 47.8941136,14.8963714 47.8877584,14.8738714 C47.8743845,14.82705 47.8650335,14.7794357 47.8433999,14.73465 C47.8291273,14.7050357 47.8068732,14.6817643 47.7896476,14.6543357 C47.7806176,14.6399571 47.7793979,14.6230929 47.7694263,14.6090786 L41.3499665,5.60907857 C41.2595805,5.48252143 41.1365622,5.40081429 41.0044925,5.34042857 C40.9193919,5.14407857 40.7682564,4.97987143 40.5650805,4.89171429 L32.6477467,1.46314286 C32.5403277,1.41711429 32.4249914,1.39283571 32.3079646,1.39283571 L15.617369,1.39283571 C15.5003422,1.39283571 15.3850059,1.41711429 15.277587,1.46314286 L7.36025312,4.89171429 C7.15714141,4.97987143 7.00604872,5.14403571 6.92094808,5.34027857 C6.78883559,5.4006 6.66568896,5.48241429 6.57536716,5.60907857 L0.155907282,14.6090786 C0.145935721,14.6230929 0.144737422,14.6399357 0.135685984,14.6543357 C0.118439035,14.6817429 0.0961849071,14.7050357 0.0819337062,14.73465 C0.0603001264,14.7794357 0.0509491132,14.82705 0.0375752385,14.8738714 C0.031198575,14.8963714 0.021120023,14.9171357 0.0165836047,14.9398929 C-0.00269617315,15.0361071 -0.0050499751,15.1331571 0.00879466003,15.2292429 C0.0119829918,15.2513143 0.0200715112,15.2712429 0.0249930971,15.2930143 C0.0418762766,15.3685071 0.0686668224,15.4403786 0.105814097,15.5096571 C0.119551741,15.53535 0.132818625,15.5596286 0.14927384,15.5839929 C0.161556407,15.6022071 0.168446627,15.6229071 0.182248466,15.6403286 L23.292304,44.7831857 C23.2990444,44.7916071 23.3099575,44.7947571 23.3169547,44.8029 C23.3901366,44.88855 23.4761359,44.95875 23.5749742,45.0093429 C23.5907447,45.0174 23.6066864,45.0221143 23.6229276,45.0291643 C23.7293408,45.0756643 23.8428155,45.1071214 23.9626454,45.1071214 C24.0824753,45.1071214 24.19595,45.0756857 24.3023632,45.0291643 C24.3186045,45.0220929 24.3345461,45.0174 24.3503166,45.0093429 C24.4491549,44.95875 24.5351542,44.88855 24.6083361,44.8029 C24.6153333,44.7947357 24.6262464,44.7916071 24.6329868,44.7831857 L47.7430424,15.6403286 C47.7568442,15.6229071 47.7637344,15.6021857 47.776017,15.5839929 C47.7924722,15.5596071 47.8057391,15.5353286 47.8194767,15.5096571 C47.8566668,15.4404 47.8834787,15.3685071 47.9003405,15.2930143 Z" id="Shape" fill="#643458"></path>
                        <polygon id="Shape" fill="#FDCA8D" points="15.7945889 3.10714286 32.1307662 3.10714286 38.2668711 5.76394286 32.0915005 9.10714286 15.833876 9.10714286 9.65848395 5.76394286"></polygon>
                        <polygon id="Shape" fill="#FDCA8D" points="13.4700382 24.5357143 34.4553168 24.5357143 23.9626882 42.5491071"></polygon>
                        <polygon id="Shape" fill="#ED5175" points="13.5038902 22.8214286 16.4996381 10.8214286 31.4510095 10.8214286 34.9299288 22.8214286"></polygon>
                        <path d="M2.3972617,14.4163714 L7.86927349,6.74472857 L14.8143373,10.5041357 L11.9040538,22.1618786 L2.44369579,14.4425143 C2.42970137,14.4311143 2.41183387,14.4268286 2.3972617,14.4163714 Z" id="Shape" fill="#ED5175"></path>
                        <path d="M11.1320282,23.7436071 C11.1417429,23.8706786 11.1739686,23.99655 11.2403672,24.1105071 L17.2041311,34.3486071 L4.50787311,18.3381643 L11.1320282,23.7436071 Z" id="Shape" fill="#FDCA8D"></path>
                        <path d="M30.7208174,34.3492714 L36.6849878,24.1104857 C36.7513864,23.99655 36.7836121,23.8706143 36.7933268,23.7435857 L43.4178885,18.3381643 L30.7208174,34.3492714 Z" id="Shape" fill="#FDCA8D"></path>
                        <path d="M36.425984,21.8316643 L33.1377868,10.48965 L40.0561029,6.74472857 L45.5279435,14.4162214 C45.5132644,14.4267429 45.4952899,14.4310714 45.4812313,14.4425357 L36.425984,21.8316643 Z" id="Shape" fill="#ED5175"></path>
                    </g>
                    <path d="M26,166 C26,166 -15.9696593,206.070303 24.8455625,253.148438" id="Path-2-Copy-2" stroke="#A8A8A8" stroke-linecap="square" stroke-dasharray="1,1,8"></path>
                    <path d="M104.342072,41.194969 C104.342072,41.194969 62.3724126,81.2652717 103.187634,128.343406" id="Path-2-Copy-5" stroke="#A8A8A8" stroke-linecap="square" stroke-dasharray="1,1,8" transform="translate(94.842072, 84.769188) rotate(51.000000) translate(-94.842072, -84.769188) "></path>
                    <path d="M76,312 C76,312 29.6124819,356.288229 74.7240428,408.321957" id="Path-2-Copy-3" stroke="#A8A8A8" stroke-linecap="square" stroke-dasharray="1,1,8" transform="translate(65.500000, 360.160979) scale(-1, 1) translate(-65.500000, -360.160979) "></path>
                    <path d="M183,350 C183,350 141.030341,390.070303 181.845562,437.148438" id="Path-2-Copy" stroke="#A8A8A8" stroke-linecap="square" stroke-dasharray="1,1,8"></path>
                    <g id="if_github_social_media_online_1940927" transform="translate(280.000000, 299.000000)" fill-rule="nonzero" fill="#414752">
                        <path d="M24.88625,32.9124688 L21.8453438,32.9124688 L18.80175,32.9124688 C18.80175,32.9124688 18.8098125,31.1064688 18.80175,29.868875 C14.6374688,30.7651563 13.475125,27.5858438 13.475125,27.5858438 C12.7145625,26.0647188 11.954,25.3028125 11.954,25.3028125 C10.432875,24.3984688 11.954,24.54225 11.954,24.54225 C13.475125,24.54225 14.2370313,26.063375 14.2370313,26.063375 C15.5727188,28.3302813 17.9484688,27.966125 18.80175,27.5845 C18.80175,26.8239375 19.135,25.6736875 19.5623125,25.3014688 C16.2392188,24.9265625 13.4724375,23.0184375 13.4724375,19.2142813 C13.4724375,15.410125 14.2356875,14.6495625 14.9975938,13.8876563 C14.8444063,13.51275 14.2074688,12.126 15.0217813,10.0835 C15.0217813,10.0835 16.517375,10.0835 18.0385,12.3665313 C18.7923438,11.6126875 21.0820938,11.6059688 21.844,11.6059688 C22.6032188,11.6059688 24.8929688,11.6126875 25.6468125,12.3665313 C27.1679375,10.0835 28.6675625,10.0835 28.6675625,10.0835 C29.4805313,12.126 28.8449375,13.51275 28.6904063,13.8876563 C29.4509688,14.6482188 30.2115313,15.4087813 30.2115313,19.2142813 C30.2115313,23.0197813 27.4487813,24.9265625 24.1243438,25.3014688 C24.553,25.6723438 24.8849063,26.9825 24.8849063,27.5845 L24.88625,32.9124688 L24.88625,32.9124688 Z" id="Cat_4_"></path>
                        <g id="Shopping_10_107_">
                            <path d="M21.5,1.34375 C32.6141563,1.34375 41.65625,10.3858437 41.65625,21.5 C41.65625,32.6141563 32.6141563,41.65625 21.5,41.65625 C10.3858437,41.65625 1.34375,32.6141563 1.34375,21.5 C1.34375,10.3858437 10.3858437,1.34375 21.5,1.34375 L21.5,1.34375 Z M21.5,0 C9.62528125,0 0,9.626625 0,21.5 C0,33.373375 9.62528125,43 21.5,43 C33.3747187,43 43,33.3747187 43,21.5 C43,9.62528125 33.373375,0 21.5,0 L21.5,0 Z" id="Shape"></path>
                        </g>
                    </g>
                </g>
            </g>
        </g>
    </g>
</svg>