<svg xmlns="http://www.w3.org/2000/svg" viewBox="0 0 989 726.72"><defs><style>.cls-1{fill:#e2e6f2;}.cls-2{fill:#f9fbf0;}.cls-3{fill:#344050;}.cls-4{fill:#303343;}.cls-5{fill:#fff;}.cls-6{fill:#e7be67;}.cls-7{fill:#2d3346;}.cls-8{fill:#545f6d;}.cls-9{fill:#2c3244;}.cls-10{opacity:0.13;}</style></defs><title>wp-plugin</title><g id="Layer_2" data-name="Layer 2"><g id="Layer_1-2" data-name="Layer 1"><ellipse class="cls-1" cx="494.5" cy="678.22" rx="494.5" ry="48.5"/><rect class="cls-2" x="102.56" y="91.72" width="801" height="584" rx="12" ry="12"/><path class="cls-3" d="M891.56,670.72H124.78c-6.41,0-16.6,1.84-17.22-7.29-.58-8.58,0-17.41,0-26V107.06c0-4.86.65-9.82,7-10.33,1.42-.11,2.9,0,4.32,0h697c24.76,0,49.55-.39,74.31,0,9.56.15,8.32,8.92,8.32,15.7V660.22c0,4.85-.51,10.16-7,10.51s-6.44,10.35,0,10c10.74-.58,16.94-8.77,17-19,0-4,0-8,0-12V112.16c0-2.71.1-5.44,0-8.15C908.2,94,900.9,87,891,86.72c-7.22-.22-14.49,0-21.71,0H118.4a41.34,41.34,0,0,0-6.47.25c-9.68,1.53-14.37,10-14.37,19V637.88c0,8.53-.32,17.13,0,25.65.38,10,7.81,16.93,17.68,17.19,2.46.07,4.93,0,7.39,0H891.56C898,680.72,898,670.72,891.56,670.72Z"/><path class="cls-4" d="M103,161H871.42c10.4,0,20.85.27,31.25,0,.44,0,.89,0,1.33,0,6.43,0,6.45-10,0-10H135.58c-10.4,0-20.85-.27-31.25,0-.44,0-.89,0-1.33,0-6.43,0-6.45,10,0,10Z"/><circle class="cls-4" cx="142.5" cy="124.22" r="7.5"/><circle class="cls-4" cx="169.5" cy="124.22" r="7.5"/><circle class="cls-4" cx="196.5" cy="124.22" r="7.5"/><path class="cls-4" d="M443.4,22.09,460,44.46l2.38,3.21c1,1.32,3.23,0,2.23-1.31L448,24l-2.38-3.21c-1-1.32-3.23,0-2.23,1.31Z"/><path class="cls-4" d="M466.14,23.63,443.77,40.21l-3.21,2.38c-1.32,1,0,3.23,1.31,2.23l22.37-16.58,3.21-2.38c1.32-1,0-3.23-1.31-2.23Z"/><circle class="cls-5" cx="453.88" cy="34.31" r="5.75" transform="matrix(0.8, -0.6, 0.6, 0.8, 68.8, 277)"/><path class="cls-4" d="M547,34.47c-.64,11.85-18.5,12-18.5,0s17.86-11.85,18.5,0c.17,3.2,5.17,3.22,5,0-.42-7.73-6.19-14.25-14.25-14.25a14.24,14.24,0,0,0-.64,28.47c8.31.37,14.46-6.23,14.89-14.22C552.17,31.26,547.17,31.27,547,34.47Z"/><circle class="cls-4" cx="495" cy="56.72" r="12"/><circle class="cls-4" cx="428" cy="68.72" r="5"/><path class="cls-4" d="M41.75,82.59H73.59c1.65,0,1.95-2.57.28-2.57H42c-1.65,0-1.95,2.57-.28,2.57Z"/><path class="cls-4" d="M56.52,65.24V97.08c0,1.65,2.57,1.95,2.57.28V65.52c0-1.65-2.57-1.95-2.57-.28Z"/><circle class="cls-5" cx="57.81" cy="81.45" r="5.75"/><path class="cls-4" d="M113.08,6.48c3.79,3.08,5.35,8.13,2.66,12.52A9.24,9.24,0,1,1,100.42,8.7c3.22-4.38,8.87-4.73,13.17-1.83,2.68,1.8,5.18-2.53,2.52-4.32A14.41,14.41,0,0,0,96.26,5.89a14.23,14.23,0,1,0,20.36-3C114.14.93,110.58,4.44,113.08,6.48Z"/><circle class="cls-4" cx="100.29" cy="61.75" r="12" transform="matrix(0.6, -0.8, 0.8, 0.6, -9.02, 105.59)"/><circle class="cls-4" cx="70.06" cy="122.73" r="5" transform="translate(-70.26 105.98) rotate(-53.47)"/><path class="cls-4" d="M712.75,348.59h31.85c1.65,0,1.95-2.57.28-2.57H713c-1.65,0-1.95,2.57-.28,2.57Z"/><path class="cls-4" d="M727.52,331.24v31.85c0,1.65,2.57,1.95,2.57.28V331.52c0-1.65-2.57-1.95-2.57-.28Z"/><circle class="cls-5" cx="728.81" cy="347.45" r="5.75"/><path class="cls-4" d="M784.08,272.48c3.79,3.08,5.35,8.13,2.66,12.52a9.24,9.24,0,1,1-15.32-10.29c3.22-4.38,8.87-4.73,13.17-1.83,2.68,1.8,5.18-2.53,2.52-4.32a14.47,14.47,0,1,0,.51.39C785.14,266.93,781.58,270.44,784.08,272.48Z"/><circle class="cls-4" cx="771.29" cy="327.75" r="12" transform="translate(48.86 752.48) rotate(-53.47)"/><circle class="cls-4" cx="741.06" cy="388.73" r="5" transform="translate(-12.38 752.87) rotate(-53.47)"/><path class="cls-4" d="M940.92,49.91,928.29,74.73l-1.81,3.56c-.75,1.47,1.41,2.9,2.17,1.42L941.27,54.9l1.81-3.56c.75-1.47-1.41-2.9-2.17-1.42Z"/><path class="cls-4" d="M949.68,71,924.86,58.32l-3.56-1.81c-1.47-.75-2.9,1.41-1.42,2.17L944.7,71.3l3.56,1.81c1.47.75,2.9-1.41,1.42-2.17Z"/><circle class="cls-5" cx="934.65" cy="64.75" r="5.75" transform="translate(452.97 868.33) rotate(-63.02)"/><path class="cls-4" d="M975.88,148.25c-10.88,4.79-18.67-11.49-8-16.72s18.26,11,8,16.72c-2.81,1.57-.29,5.89,2.52,4.32,6.75-3.77,9.82-12.11,6.17-19.18a14.25,14.25,0,0,0-25.35,13c3.7,7.2,12.08,9.3,19.18,6.17C981.34,151.27,978.8,147,975.88,148.25Z"/><circle class="cls-6" cx="932.92" cy="111.54" r="12" transform="translate(48.14 427.68) rotate(-26.48)"/><circle class="cls-4" cx="892.31" cy="56.92" r="5" transform="translate(68.23 403.84) rotate(-26.48)"/><path class="cls-4" d="M80.77,507.91,54.95,518.33l-3.71,1.5c-1.53.62-.84,3.12.7,2.49l25.82-10.43,3.71-1.5c1.53-.62.84-3.12-.7-2.49Z"/><path class="cls-4" d="M73.56,529.53,63.14,503.71,61.64,500c-.62-1.53-3.12-.84-2.49.7l10.43,25.82,1.5,3.71c.62,1.53,3.12.84,2.49-.7Z"/><circle class="cls-5" cx="66.3" cy="514.98" r="5.75" transform="translate(-188 62.29) rotate(-21.99)"/><path class="cls-4" d="M42.78,605.08c-11.3-3.59-7-20.88,4.58-17.92s7.06,20.29-4.58,17.92c-3.14-.64-4.49,4.18-1.33,4.82,7.59,1.54,15.34-2.36,17.4-10.17a14.24,14.24,0,0,0-27.37-7.85c-2.45,7.93,2.34,15.59,10,18C44.53,610.87,45.84,606,42.78,605.08Z"/><circle class="cls-6" cx="34.28" cy="549.14" r="12" transform="translate(-505.86 444.32) rotate(-75.45)"/><circle class="cls-4" cx="39.5" cy="481.28" r="5" transform="translate(-436.26 398.57) rotate(-75.45)"/><rect class="cls-3" x="105" y="155.72" width="801" height="520"/><rect class="cls-7" x="126.67" y="543.72" width="170" height="15"/><rect class="cls-5" x="321.67" y="543.72" width="170" height="15"/><rect class="cls-6" x="516.67" y="543.72" width="170" height="15"/><rect class="cls-8" x="711.67" y="543.72" width="170" height="15"/><rect class="cls-8" x="126.67" y="572.72" width="170" height="15"/><rect class="cls-6" x="126.67" y="601.72" width="170" height="15"/><rect class="cls-6" x="321.67" y="572.72" width="170" height="15"/><rect class="cls-5" x="321.67" y="601.72" width="170" height="15"/><rect class="cls-8" x="516.67" y="572.72" width="170" height="15"/><rect class="cls-9" x="516.67" y="601.72" width="170" height="15"/><rect class="cls-9" x="711.67" y="572.72" width="170" height="15"/><rect class="cls-8" x="711.67" y="601.72" width="170" height="15"/><path class="cls-10" d="M518.81,91.72H111.56a12,12,0,0,0-12,12v560a11.91,11.91,0,0,0,2.44,7.21v4.79H292.84Z"/><g id="Page-1"><g id="Core"><g id="extension"><path id="Shape" class="cls-5" d="M630,334.25H610.54V282.44a26,26,0,0,0-25.9-25.9H532.82V237.11a32.38,32.38,0,0,0-64.76,0v19.43H416.25a26,26,0,0,0-25.9,25.9v49.22h19.43a35,35,0,0,1,0,69.94H390.35v49.22a26,26,0,0,0,25.9,25.9h49.22V457.3a35,35,0,1,1,69.94,0v19.43h49.22a26,26,0,0,0,25.9-25.9V399H630a32.38,32.38,0,0,0,0-64.76Z"/></g></g></g></g></g></svg>