<svg xmlns="http://www.w3.org/2000/svg" viewBox="0 0 312.02 405.64"><defs><style>.cls-1{fill:#7fe2a9;}.cls-2{opacity:0.5;}.cls-3{fill:#78d19c;}.cls-4{fill:#5cc686;}.cls-5{fill:#fff;}.cls-6{fill:#515151;}.cls-7{fill:#d8f3f1;}.cls-8{fill:#b1d9d5;}.cls-9{opacity:0.1;}.cls-10{fill:#ffd07e;}</style></defs><title>icon-geld</title><g id="Layer_2" data-name="Layer 2"><g id="Layer_1-2" data-name="Layer 1"><rect class="cls-1" x="4.39" y="83.2" width="239.59" height="111.71" transform="translate(-57.18 182.27) rotate(-61.63)"/><g class="cls-2"><path class="cls-3" d="M18.17,218.1,27.22,223,121.81,47.82a32.43,32.43,0,0,1,44-13.13l60.7,32.78,3.84-7.11L132,7.28Z"/></g><g class="cls-2"><path class="cls-3" d="M70.5,235.91l-48-25.9-4.36,8.08,98.3,53.08L230.3,60.35l-5.82-3.14L139.05,215.43A50.59,50.59,0,0,1,70.5,235.91Z"/></g><path class="cls-4" d="M228.31,59.14l-11.36,21-27.19,50.36-33,61-28.39,52.57-9.3,17.23a85.93,85.93,0,0,0-4.45,8.24,3.58,3.58,0,0,1-.19.34l3-.89L84.23,251.12,31.28,222.53,19.17,216l.89,3,11.36-21,27.19-50.36,33-61L120,34l9.3-17.23a85.93,85.93,0,0,0,4.45-8.24,3.58,3.58,0,0,1,.19-.34l-3,.89L164.15,27,217.1,55.59l12.11,6.54c2.5,1.35,4.6-2.53,2.1-3.88L198.06,40.3,145.11,11.71,133,5.17a2.24,2.24,0,0,0-3,.89l-11.36,21L91.46,77.46l-33,61L30.12,191.07c-4.58,8.47-9.46,16.85-13.75,25.47l-.19.34a2.24,2.24,0,0,0,.89,3l33.24,17.95,52.95,28.59,12.11,6.54a2.24,2.24,0,0,0,3-.89l11.36-21,27.19-50.36,33-61L218.25,87c4.58-8.47,9.46-16.85,13.75-25.47l.19-.34C233.54,58.74,229.66,56.64,228.31,59.14Z"/><path class="cls-4" d="M215,62.75,204.59,82.06l-25,46.38-30.3,56.12L123,233.1l-8.65,16a82.72,82.72,0,0,0-4.12,7.62,3.7,3.7,0,0,1-.18.34l3-.89-27.23-14.7L42.48,218.07l-9.91-5.35.89,3,10.43-19.31,25-46.38,30.3-56.12,26.21-48.54,8.65-16a82.72,82.72,0,0,0,4.12-7.62,3.7,3.7,0,0,1,.18-.34l-3,.89L162.63,37,206,60.38l9.91,5.35c2.5,1.35,4.6-2.53,2.1-3.88l-27.23-14.7L147.4,23.73l-9.91-5.35a2.24,2.24,0,0,0-3,.89L124.08,38.58,99,85l-30.3,56.12L42.52,189.63c-4.25,7.86-8.78,15.64-12.76,23.64l-.18.34a2.24,2.24,0,0,0,.89,3L57.7,231.3l43.37,23.42,9.91,5.35a2.24,2.24,0,0,0,3-.89l10.43-19.31,25-46.38,30.3-56.12,26.21-48.54c4.25-7.86,8.78-15.64,12.76-23.64l.18-.34C220.25,62.35,216.37,60.25,215,62.75Z"/><circle class="cls-5" cx="124.19" cy="139.06" r="29.4" transform="translate(-57.18 182.27) rotate(-61.63)"/><path class="cls-4" d="M153.29,154.77A33.07,33.07,0,1,1,139.9,110,33.11,33.11,0,0,1,153.29,154.77Zm-51.74-27.93a25.72,25.72,0,1,0,34.86-10.41A25.75,25.75,0,0,0,101.55,126.84Z"/><rect class="cls-4" x="80.13" y="189.12" width="32.34" height="3.67" transform="translate(-117.48 184.97) rotate(-61.63)"/><rect class="cls-4" x="139.02" y="83.94" width="32.34" height="3.67" transform="translate(5.98 181.57) rotate(-61.63)"/><rect class="cls-1" x="-1.51" y="84.33" width="239.59" height="111.71" transform="translate(-55.45 199) rotate(-68.54)"/><g class="cls-2"><path class="cls-3" d="M22.55,231.41l9.58,3.76L104.95,49.89A32.43,32.43,0,0,1,147,31.57L211.2,56.81l3-7.52-104-40.86Z"/></g><g class="cls-2"><path class="cls-3" d="M76.64,242.8,25.91,222.86l-3.36,8.55,104,40.86,87.64-223L208,46.86,142.23,214.22A50.59,50.59,0,0,1,76.64,242.8Z"/></g><path class="cls-4" d="M212.15,48.07l-8.72,22.19-20.94,53.29L157.15,188l-21.89,55.69L128.09,262c-1.11,2.83-2.67,5.78-3.43,8.74a3.28,3.28,0,0,1-.14.36l3-.89-35.36-13.9-55.86-22-12.76-5,.89,3L33.17,210,54.1,156.78,79.48,92.22l21.85-55.61,7.16-18.22c1.11-2.83,2.67-5.77,3.43-8.72a3.28,3.28,0,0,1,.14-.36l-3,.89L144.23,24l56,22,12.81,5c2.61,1,4.73-2.84,2.1-3.88L180,33.36l-56-22-12.81-5c-1-.39-2.51-.32-3,.89L99.43,29.47,78.5,82.73,53.13,147.29,31.27,202.9c-3.53,9-7.09,18-10.59,26.94l-.14.36c-.39,1-.32,2.51.89,3l35.36,13.9,55.86,22,12.76,5c1,.39,2.51.32,3-.89L137.12,251l20.94-53.29,25.33-64.46,21.89-55.69c3.54-9,7.1-18,10.61-27l.14-.36C217.06,47.56,213.19,45.44,212.15,48.07Z"/><path class="cls-4" d="M199.39,53.26l-8,20.42-19.28,49.05L148.75,182.1l-20.18,51.34-6.66,16.94a75.73,75.73,0,0,0-3.17,8.06,3.39,3.39,0,0,1-.14.36l3-.89-28.8-11.32-45.87-18-10.49-4.12.89,3,8-20.42L64.63,158,88,98.59l20.18-51.34,6.66-16.94A75.73,75.73,0,0,0,118,22.25a3.39,3.39,0,0,1,.14-.36l-3,.89,28.8,11.32,45.87,18,10.49,4.12c2.61,1,4.73-2.84,2.1-3.88L173.57,41,127.7,23,117.22,18.9c-1-.39-2.51-.32-3,.89l-8,20.42L86.92,89.27,63.59,148.63,43.41,200c-3.28,8.33-6.58,16.66-9.83,25l-.14.36c-.39,1-.32,2.51.89,3l28.8,11.32,45.87,18,10.49,4.12c1,.39,2.51.32,3-.89l8-20.42,19.28-49.05,23.33-59.36L193.3,80.72c3.28-8.33,6.58-16.66,9.83-25l.14-.36C204.29,52.75,200.43,50.62,199.39,53.26Z"/><circle class="cls-5" cx="118.29" cy="140.19" r="29.4" transform="translate(-55.45 199) rotate(-68.54)"/><path class="cls-4" d="M147.36,156a33.11,33.11,0,1,1,1.71-3.68A33.62,33.62,0,0,1,147.36,156Zm-51.69-28a26.15,26.15,0,0,0-1.33,2.86,25.63,25.63,0,1,0,1.33-2.86Z"/><rect class="cls-4" x="80.68" y="193.23" width="32.34" height="3.67" transform="translate(-120.12 213.86) rotate(-68.54)"/><rect class="cls-4" x="126.48" y="81.72" width="32.34" height="3.67" transform="matrix(0.37, -0.93, 0.93, 0.37, 12.7, 185.76)"/><rect class="cls-1" x="-15.52" y="86.34" width="239.59" height="111.71" transform="translate(-64.49 193.3) rotate(-70.59)"/><g class="cls-2"><path class="cls-3" d="M11.86,236.78l9.7,3.42L87.71,52.44a32.43,32.43,0,0,1,41.37-19.82l65.07,22.92,2.69-7.63L91.47,10.8Z"/></g><g class="cls-2"><path class="cls-3" d="M66.33,246.23,14.92,228.12l-3.05,8.66L117.23,273.9l79.61-226-6.24-2.2-59.75,169.6A50.59,50.59,0,0,1,66.33,246.23Z"/></g><path class="cls-4" d="M194.61,47.27l-7.95,22.56-19,54-23,65.42-19.85,56.35L118.25,264c-1,2.89-2.39,5.85-3.11,8.84,0,.12-.09.25-.13.37l2.64-1.65L81.82,259,25.21,239l-12.93-4.55,1.65,2.64,7.95-22.56,19-54,23-65.42L83.8,38.81,90.3,20.34c1-2.89,2.39-5.85,3.11-8.84,0-.12.09-.25.13-.37L90.9,12.79l35.83,12.62,56.61,19.94,12.93,4.55c2.67.94,3.64-3.36,1-4.3L161.43,33,104.82,13,91.89,8.49c-1.21-.43-2.29.64-2.64,1.65L81.3,32.71l-19,54-23,65.42L19.39,208.46l-6.51,18.47c-1,2.93-2.26,5.85-3.11,8.84,0,.12-.09.25-.13.37-.43,1.21.64,2.29,1.65,2.64L47.13,251.4l56.61,19.94,12.93,4.55c1.21.43,2.29-.64,2.64-1.65l7.95-22.56,19-54,23-65.42,19.85-56.35,6.51-18.47c1-2.93,2.26-5.85,3.11-8.84,0-.12.09-.25.13-.37C199.85,45.59,195.55,44.61,194.61,47.27Z"/><path class="cls-4" d="M182,52.9l-7.29,20.7-17.51,49.71L136,183.47l-18.33,52-6,17.17c-.94,2.68-2.19,5.41-2.88,8.17,0,.12-.09.25-.13.37l2.64-1.65L82.12,249.27,35.63,232.9,25,229.15l1.65,2.64,7.29-20.7,17.51-49.71,21.19-60.16L91,49.2,97,32c.94-2.68,2.19-5.41,2.88-8.17,0-.12.09-.25.13-.37L97.4,25.15l29.19,10.28L173.07,51.8l10.63,3.74c2.67.94,3.64-3.36,1-4.3L155.5,41,109,24.59,98.38,20.85c-1.21-.43-2.29.64-2.64,1.65L88.45,43.2,70.94,92.91,49.75,153.07l-18.33,52-6,17.17c-1,2.71-2.09,5.41-2.88,8.17,0,.12-.09.24-.13.37-.43,1.21.64,2.29,1.65,2.64L53.2,243.73l46.49,16.38,10.63,3.74c1.21.43,2.29-.64,2.64-1.65l7.29-20.7,17.51-49.71L159,131.63l18.33-52,6-17.17c1-2.71,2.09-5.41,2.88-8.17,0-.12.09-.24.13-.37C187.28,51.22,183,50.25,182,52.9Z"/><circle class="cls-5" cx="104.28" cy="142.19" r="29.4" transform="translate(-64.49 193.3) rotate(-70.59)"/><path class="cls-4" d="M133.35,158a33.08,33.08,0,1,1-18.09-47h0a33.07,33.07,0,0,1,20.21,42.18A33.53,33.53,0,0,1,133.35,158Zm-51.7-28a25.73,25.73,0,1,0,31.18-12h0A25.77,25.77,0,0,0,81.65,130Z"/><rect class="cls-4" x="68.65" y="195.97" width="32.34" height="3.67" transform="translate(-129.93 212.08) rotate(-70.59)"/><rect class="cls-4" x="110.43" y="82.89" width="32.34" height="3.67" transform="matrix(0.33, -0.94, 0.94, 0.33, 4.62, 175.98)"/><path class="cls-6" d="M215.46,42.37a236.35,236.35,0,0,1-26.25-12L163.58,16.57,137.85,2.68C135,1.12,132.12-.89,128.73.42c-3.71,1.43-5.15,6-6.9,9.22l5.08-2.07-9-3.55c-2.65-1-5.78-2.91-8.71-2.89-5.74,0-7,6.3-8.64,10.58l5.54-3.14L96.82,5.31c-2.39-.84-4.95-2.24-7.55-1.69C83.65,4.79,82.63,12.46,81,16.94L66.9,57.09,39.29,135.48q-13.86,39.35-27.87,78.66c-1.94,5.41-3.79,10.94-5.7,16.39-1.55,4.42-2.59,9,2.43,11.65,5.52,2.88,12.17,4.36,18,6.43l20.68,7.29L90.7,271.34c7.32,2.58,14.61,5.52,22,7.76,6.06,1.83,8.84-.78,10.83-6.42L118,275.83c3,1.19,6.57,3.28,9.92,2,3.84-1.41,4.75-6.16,6.09-9.55l10.56-26.86,11-27.86a227,227,0,0,1,11.91-25.1c18.7-34.63,37.14-69.41,56.12-103.89,2.48-4.51,5-9,7.44-13.54,1.78-3.32,5.31-7.89,5-11.91a7,7,0,0,0-3.31-5.28c-4.7-3.17-10.23-5.53-15.23-8.22l2.07,5.08c.91-3.5-.17-5.87-3-7.92-4.69-3.41-9.19,4.4-4.54,7.77l.89.64-2.07-2.69q.27-1.05,0-.2a4.58,4.58,0,0,0,2.07,5.08l11,5.94c.3.16,2.27,1.48,2.54,1.37.06,0,1.48-1,.73-1.2l.05-.72-.87,1.72c-.66,1.09-1.18,2.3-1.77,3.43-3.9,7.42-8.08,14.7-12.06,22.08q-12.31,22.78-24.6,45.56L163.45,177c-3.86,7.15-8.25,14.22-11.61,21.62-3.5,7.72-6.25,15.87-9.35,23.76L131.9,249.3l-5.09,12.95c-.82,2.09-2.78,5.13-2.91,7.4.09-1.59,2.91,1.36.94-.75-.68-.73-3.6-1.41-4.42-1.74-2.37-.93-4.8,1-5.54,3.14l-.4,1.13q1.47-1.22-.28-1.33c-.71-.75-2.68-.94-3.69-1.3l-8.29-2.92-17.35-6.11-33.78-11.9L17.27,236c-1.25-.44-2.53-.86-3.77-1.33l-.27,1.86q.38-1.35.86-2.67c.91-2.65,1.93-5.27,2.87-7.91,1.69-4.77,3.29-9.35,5-14.11L70,75.31,83.45,37.15l6.61-18.76c.45-1.27.8-3.64,1.66-4.7q.82-1.44-.05-.68l2.77,1,9.25,3.26c2.46.87,4.7-1,5.54-3.14.08-.2,1.92-4.56,1.82-4.62q-3.83.67-.11,1.43L113.67,12l10.86,4.27a4.51,4.51,0,0,0,5.08-2.07,52.1,52.1,0,0,0,2.27-4.71c-.14.06,4,2.38,4.9,2.84l10.31,5.57,22.2,12,22.2,12c6.9,3.73,14.28,6.32,21.57,9.18C218.46,53.17,220.79,44.47,215.46,42.37Z"/><rect class="cls-1" x="80.39" y="83.2" width="239.59" height="111.71" transform="translate(-17.29 249.14) rotate(-61.63)"/><g class="cls-2"><path class="cls-3" d="M94.17,218.1l9.05,4.89L197.81,47.82a32.43,32.43,0,0,1,44-13.13l60.7,32.78,3.84-7.11L208,7.28Z"/></g><g class="cls-2"><path class="cls-3" d="M146.5,235.91l-48-25.9-4.36,8.08,98.3,53.08L306.3,60.35l-5.82-3.14L215.05,215.43A50.59,50.59,0,0,1,146.5,235.91Z"/></g><path class="cls-4" d="M304.31,59.14l-11.36,21-27.19,50.36-33,61-28.39,52.57-9.3,17.23a85.93,85.93,0,0,0-4.45,8.24,3.58,3.58,0,0,1-.19.34l3-.89-33.24-17.95-52.95-28.59L95.17,216l.89,3,11.36-21,27.19-50.36,33-61L196,34l9.3-17.23a85.93,85.93,0,0,0,4.45-8.24,3.58,3.58,0,0,1,.19-.34l-3,.89L240.15,27,293.1,55.59l12.11,6.54c2.5,1.35,4.6-2.53,2.1-3.88L274.06,40.3,221.11,11.71,209,5.17a2.24,2.24,0,0,0-3,.89l-11.36,21L167.46,77.46l-33,61-28.39,52.57c-4.58,8.47-9.46,16.85-13.75,25.47l-.19.34a2.24,2.24,0,0,0,.89,3l33.24,17.95,52.95,28.59,12.11,6.54a2.24,2.24,0,0,0,3-.89l11.36-21,27.19-50.36,33-61L294.25,87c4.58-8.47,9.46-16.85,13.75-25.47l.19-.34C309.54,58.74,305.66,56.64,304.31,59.14Z"/><path class="cls-4" d="M291,62.75,280.59,82.06l-25,46.38-30.3,56.12L199,233.1l-8.65,16a82.72,82.72,0,0,0-4.12,7.62,3.7,3.7,0,0,1-.18.34l3-.89-27.23-14.7-43.37-23.42-9.91-5.35.89,3,10.43-19.31,25-46.38,30.3-56.12,26.21-48.54,8.65-16a82.72,82.72,0,0,0,4.12-7.62,3.7,3.7,0,0,1,.18-.34l-3,.89L238.63,37,282,60.38l9.91,5.35c2.5,1.35,4.6-2.53,2.1-3.88l-27.23-14.7L223.4,23.73l-9.91-5.35a2.24,2.24,0,0,0-3,.89L200.08,38.58,175,85l-30.3,56.12-26.21,48.54c-4.25,7.86-8.78,15.64-12.76,23.64l-.18.34a2.24,2.24,0,0,0,.89,3l27.23,14.7,43.37,23.42,9.91,5.35a2.24,2.24,0,0,0,3-.89l10.43-19.31,25-46.38,30.3-56.12,26.21-48.54c4.25-7.86,8.78-15.64,12.76-23.64l.18-.34C296.25,62.35,292.37,60.25,291,62.75Z"/><circle class="cls-5" cx="200.19" cy="139.06" r="29.4" transform="translate(-17.29 249.14) rotate(-61.63)"/><path class="cls-4" d="M229.29,154.77A33.07,33.07,0,1,1,215.9,110,33.11,33.11,0,0,1,229.29,154.77Zm-51.74-27.93a25.72,25.72,0,1,0,34.86-10.41A25.75,25.75,0,0,0,177.55,126.84Z"/><rect class="cls-4" x="156.13" y="189.12" width="32.34" height="3.67" transform="translate(-77.59 251.85) rotate(-61.63)"/><rect class="cls-4" x="215.02" y="83.94" width="32.34" height="3.67" transform="translate(45.87 248.45) rotate(-61.63)"/><rect class="cls-1" x="74.49" y="84.33" width="239.59" height="111.71" transform="translate(-7.25 269.73) rotate(-68.54)"/><g class="cls-2"><path class="cls-3" d="M98.55,231.41l9.58,3.76L180.95,49.89A32.43,32.43,0,0,1,223,31.57L287.2,56.81l3-7.52-104-40.86Z"/></g><g class="cls-2"><path class="cls-3" d="M152.64,242.8l-50.73-19.94-3.36,8.55,104,40.86,87.64-223L284,46.86,218.23,214.22A50.59,50.59,0,0,1,152.64,242.8Z"/></g><path class="cls-4" d="M288.15,48.07l-8.72,22.19-20.94,53.29L233.15,188l-21.89,55.69L204.09,262c-1.11,2.83-2.67,5.78-3.43,8.74a3.28,3.28,0,0,1-.14.36l3-.89-35.36-13.9-55.86-22-12.76-5,.89,3L109.17,210l20.93-53.26,25.37-64.56,21.85-55.61,7.16-18.22c1.11-2.83,2.67-5.77,3.43-8.72a3.28,3.28,0,0,1,.14-.36l-3,.89L220.23,24l56,22,12.81,5c2.61,1,4.73-2.84,2.1-3.88L256,33.36l-56-22-12.81-5c-1-.39-2.51-.32-3,.89l-8.75,22.26L154.5,82.73l-25.37,64.56L107.27,202.9c-3.53,9-7.09,18-10.59,26.94l-.14.36c-.39,1-.32,2.51.89,3l35.36,13.9,55.86,22,12.76,5c1,.39,2.51.32,3-.89L213.12,251l20.94-53.29,25.33-64.46,21.89-55.69c3.54-9,7.1-18,10.61-27l.14-.36C293.06,47.56,289.19,45.44,288.15,48.07Z"/><path class="cls-4" d="M275.39,53.26l-8,20.42-19.28,49.05L224.75,182.1l-20.18,51.34-6.66,16.94a75.73,75.73,0,0,0-3.17,8.06,3.39,3.39,0,0,1-.14.36l3-.89-28.8-11.32-45.87-18-10.49-4.12.89,3,8-20.42L140.63,158,164,98.59l20.18-51.34,6.66-16.94A75.73,75.73,0,0,0,194,22.25a3.39,3.39,0,0,1,.14-.36l-3,.89,28.8,11.32,45.87,18,10.49,4.12c2.61,1,4.73-2.84,2.1-3.88L249.57,41,203.7,23,193.22,18.9c-1-.39-2.51-.32-3,.89l-8,20.42L162.92,89.27l-23.33,59.36L119.41,200c-3.28,8.33-6.58,16.66-9.83,25l-.14.36c-.39,1-.32,2.51.89,3l28.8,11.32,45.87,18,10.49,4.12c1,.39,2.51.32,3-.89l8-20.42,19.28-49.05,23.33-59.36L269.3,80.72c3.28-8.33,6.58-16.66,9.83-25l.14-.36C280.29,52.75,276.43,50.62,275.39,53.26Z"/><circle class="cls-5" cx="194.29" cy="140.19" r="29.4" transform="translate(-7.25 269.73) rotate(-68.54)"/><path class="cls-4" d="M223.36,156a33.11,33.11,0,1,1,1.71-3.68A33.62,33.62,0,0,1,223.36,156Zm-51.69-28a26.15,26.15,0,0,0-1.33,2.86,25.63,25.63,0,1,0,1.33-2.86Z"/><rect class="cls-4" x="156.68" y="193.23" width="32.34" height="3.67" transform="translate(-71.92 284.59) rotate(-68.54)"/><rect class="cls-4" x="202.48" y="81.72" width="32.34" height="3.67" transform="matrix(0.37, -0.93, 0.93, 0.37, 60.9, 256.49)"/><rect class="cls-1" x="60.48" y="86.34" width="239.59" height="111.71" transform="translate(-13.74 264.98) rotate(-70.59)"/><g class="cls-2"><path class="cls-3" d="M87.86,236.78l9.7,3.42L163.71,52.44a32.43,32.43,0,0,1,41.37-19.82l65.07,22.92,2.69-7.63L167.47,10.8Z"/></g><g class="cls-2"><path class="cls-3" d="M142.33,246.23,90.92,228.12l-3.05,8.66L193.23,273.9l79.61-226-6.24-2.2-59.75,169.6A50.59,50.59,0,0,1,142.33,246.23Z"/></g><path class="cls-4" d="M270.61,47.27l-7.95,22.56-19,54-23,65.42-19.85,56.35L194.25,264c-1,2.89-2.39,5.85-3.11,8.84,0,.12-.09.25-.13.37l2.64-1.65L157.82,259,101.21,239l-12.93-4.55,1.65,2.64,7.95-22.56,19-54,23-65.42L159.8,38.81l6.51-18.47c1-2.89,2.39-5.85,3.11-8.84,0-.12.09-.25.13-.37l-2.64,1.65,35.83,12.62,56.61,19.94,12.93,4.55c2.67.94,3.64-3.36,1-4.3L237.43,33,180.82,13,167.89,8.49c-1.21-.43-2.29.64-2.64,1.65L157.3,32.71l-19,54-23,65.42L95.39,208.46l-6.51,18.47c-1,2.93-2.26,5.85-3.11,8.84,0,.12-.09.25-.13.37-.43,1.21.64,2.29,1.65,2.64l35.83,12.62,56.61,19.94,12.93,4.55c1.21.43,2.29-.64,2.64-1.65l7.95-22.56,19-54,23-65.42,19.85-56.35,6.51-18.47c1-2.93,2.26-5.85,3.11-8.84,0-.12.09-.25.13-.37C275.85,45.59,271.55,44.61,270.61,47.27Z"/><path class="cls-4" d="M258,52.9l-7.29,20.7-17.51,49.71L212,183.47l-18.33,52-6,17.17c-.94,2.68-2.19,5.41-2.88,8.17,0,.12-.09.25-.13.37l2.64-1.65-29.19-10.28L111.63,232.9,101,229.15l1.65,2.64,7.29-20.7,17.51-49.71,21.19-60.16L167,49.2,173,32c.94-2.68,2.19-5.41,2.88-8.17,0-.12.09-.25.13-.37l-2.64,1.65,29.19,10.28L249.07,51.8l10.63,3.74c2.67.94,3.64-3.36,1-4.3L231.5,41,185,24.59l-10.63-3.74c-1.21-.43-2.29.64-2.64,1.65l-7.29,20.7L146.94,92.91l-21.19,60.16-18.33,52-6,17.17c-1,2.71-2.09,5.41-2.88,8.17,0,.12-.09.24-.13.37-.43,1.21.64,2.29,1.65,2.64l29.19,10.28,46.49,16.38,10.63,3.74c1.21.43,2.29-.64,2.64-1.65l7.29-20.7,17.51-49.71L235,131.63l18.33-52,6-17.17c1-2.71,2.09-5.41,2.88-8.17,0-.12.09-.24.13-.37C263.28,51.22,259,50.25,258,52.9Z"/><circle class="cls-5" cx="180.28" cy="142.19" r="29.4" transform="translate(-13.74 264.98) rotate(-70.59)"/><path class="cls-4" d="M209.35,158a33.08,33.08,0,1,1-18.09-47h0a33.07,33.07,0,0,1,20.21,42.18A33.53,33.53,0,0,1,209.35,158Zm-51.7-28a25.73,25.73,0,1,0,31.18-12h0A25.77,25.77,0,0,0,157.65,130Z"/><rect class="cls-4" x="144.65" y="195.97" width="32.34" height="3.67" transform="translate(-79.19 283.76) rotate(-70.59)"/><rect class="cls-4" x="186.43" y="82.89" width="32.34" height="3.67" transform="matrix(0.33, -0.94, 0.94, 0.33, 55.36, 247.67)"/><path class="cls-6" d="M291.46,42.37a236.35,236.35,0,0,1-26.25-12L239.58,16.57,213.85,2.68C211,1.12,208.12-.89,204.73.42c-3.71,1.43-5.15,6-6.9,9.22l5.08-2.07-9-3.55c-2.65-1-5.78-2.91-8.71-2.89-5.74,0-7,6.3-8.64,10.58l5.54-3.14-9.25-3.26c-2.39-.84-4.95-2.24-7.55-1.69-5.62,1.17-6.64,8.85-8.22,13.32L142.9,57.09l-27.61,78.39q-13.86,39.35-27.87,78.66c-1.94,5.41-3.79,10.94-5.7,16.39-1.55,4.42-2.59,9,2.43,11.65,5.52,2.88,12.17,4.36,18,6.43l20.68,7.29,43.82,15.44c7.32,2.58,14.61,5.52,22,7.76,6.06,1.83,8.84-.78,10.83-6.42L194,275.83c3,1.19,6.57,3.28,9.92,2,3.84-1.41,4.75-6.16,6.09-9.55l10.56-26.86,11-27.86a227,227,0,0,1,11.91-25.1c18.7-34.63,37.14-69.41,56.12-103.89,2.48-4.51,5-9,7.44-13.54,1.78-3.32,5.31-7.89,5-11.91a7,7,0,0,0-3.31-5.28c-4.7-3.17-10.23-5.53-15.23-8.22l2.07,5.08c.91-3.5-.17-5.87-3-7.92-4.69-3.41-9.19,4.4-4.54,7.77l.89.64-2.07-2.69q.27-1.05,0-.2a4.58,4.58,0,0,0,2.07,5.08l11,5.94c.3.16,2.27,1.48,2.54,1.37.06,0,1.48-1,.73-1.2l.05-.72-.87,1.72c-.66,1.09-1.18,2.3-1.77,3.43-3.9,7.42-8.08,14.7-12.06,22.08q-12.31,22.78-24.6,45.56L239.45,177c-3.86,7.15-8.25,14.22-11.61,21.62-3.5,7.72-6.25,15.87-9.35,23.76L207.9,249.3l-5.09,12.95c-.82,2.09-2.78,5.13-2.91,7.4.09-1.59,2.91,1.36.94-.75-.68-.73-3.6-1.41-4.42-1.74-2.37-.93-4.8,1-5.54,3.14l-.4,1.13q1.47-1.22-.28-1.33c-.71-.75-2.68-.94-3.69-1.3l-8.29-2.92-17.35-6.11-33.78-11.9L93.27,236c-1.25-.44-2.53-.86-3.77-1.33l-.27,1.86q.38-1.35.86-2.67c.91-2.65,1.93-5.27,2.87-7.91,1.69-4.77,3.29-9.35,5-14.11L146,75.31l13.44-38.16,6.61-18.76c.45-1.27.8-3.64,1.66-4.7q.82-1.44-.05-.68l2.77,1,9.25,3.26c2.46.87,4.7-1,5.54-3.14.08-.2,1.92-4.56,1.82-4.62q-3.83.67-.11,1.43L189.67,12l10.86,4.27a4.51,4.51,0,0,0,5.08-2.07,52.1,52.1,0,0,0,2.27-4.71c-.14.06,4,2.38,4.9,2.84l10.31,5.57,22.2,12,22.2,12c6.9,3.73,14.28,6.32,21.57,9.18C294.46,53.17,296.79,44.47,291.46,42.37Z"/><rect class="cls-7" x="4.55" y="108.14" width="293" height="293" rx="12" ry="12"/><path class="cls-8" d="M285.55,394.14h-269a12,12,0,0,1-12-12v8a12,12,0,0,0,12,12h269a12,12,0,0,0,12-12v-8A12,12,0,0,1,285.55,394.14Z"/><path class="cls-5" d="M285.55,108.14h-269a12,12,0,0,0-12,12v9a12,12,0,0,1,12-12h269a12,12,0,0,1,12,12v-9A12,12,0,0,0,285.55,108.14Z"/><path class="cls-6" d="M285.55,396.64H44.66c-9.26,0-18.86.73-28.1,0-7.32-.58-7.5-6.54-7.5-12V154.93c0-11.35-.65-22.92,0-34.26.34-5.82,4.47-8,9.6-8H243.52c13.37,0,26.75-.13,40.12,0,5.12,0,9.1,2.35,9.41,8.09.2,3.71,0,7.48,0,11.19v253c0,5.32-.31,11.34-7.5,11.73-5.76.31-5.8,9.31,0,9,10.53-.57,16.5-8.63,16.5-18.6V156.34c0-11.88.36-23.83,0-35.71-.3-9.79-7.34-16.7-17.09-17-3.87-.12-7.76,0-11.63,0H135.1c-38.88,0-77.76-.23-116.64,0-9.85.06-18,6.07-18.41,16.5-.12,2.69,0,5.42,0,8.11V384.91c0,6,.44,11.77,5.29,16.31,4.64,4.34,10.21,4.42,16,4.42h264.2C291.34,405.64,291.35,396.64,285.55,396.64Z"/><path class="cls-6" d="M271.1,388.14h-8v-3h8Zm-16,0h-8v-3h8Zm-15.93,0h-8v-3h8Zm-15.93,0h-8v-3h8Zm-15.93,0h-8v-3h8Zm-15.93,0h-8v-3h8Zm-15.93,0h-8v-3h8Zm-15.93,0h-8v-3h8Zm-15.93,0h-8v-3h8Zm-15.93,0h-8v-3h8Zm-15.93,0h-8v-3h8Zm-15.93,0h-8v-3h8Zm-15.93,0h-8v-3h8Zm-15.93,0H56v-3h8Zm-15.93,0h-8v-3h8Zm-15.93,0H31.05A13.41,13.41,0,0,1,23.72,386l1.63-2.52a10.42,10.42,0,0,0,5.69,1.69h1.08Zm247.28-2.91-1.86-2.35a10.59,10.59,0,0,0,3.71-5.75l2.91.71A13.61,13.61,0,0,1,279.4,385.22ZM18.3,379a13.44,13.44,0,0,1-.74-4.41v-4h3v4a10.42,10.42,0,0,0,.58,3.43Zm266.26-9.51h-3v-8h3Zm-264-6.84h-3v-8h3Zm264-9.09h-3v-8h3Zm-264-6.84h-3v-8h3Zm264-9.09h-3v-8h3Zm-264-6.84h-3v-8h3Zm264-9.09h-3v-8h3Zm-264-6.84h-3v-8h3Zm264-9.09h-3v-8h3ZM20.55,299h-3v-8h3Zm264-9.09h-3v-8h3Zm-264-6.84h-3v-8h3Zm264-9.09h-3v-8h3Zm-264-6.84h-3v-8h3Zm264-9.09h-3v-8h3Zm-264-6.84h-3v-8h3Zm264-9.09h-3v-8h3Zm-264-6.84h-3v-8h3Zm264-9.09h-3v-8h3Zm-264-6.84h-3v-8h3Zm264-9.09h-3v-8h3Zm-264-6.84h-3v-8h3Zm264-9.09h-3v-8h3Zm-264-6.84h-3v-8h3Zm264-9.09h-3v-8h3Zm-264-6.84h-3v-8h3Zm264-9.09h-3v-8h3Zm-264-6.84h-3v-8h3Zm264-9.09h-3v-8h3Zm-264-6.84h-3v-5.07a13.43,13.43,0,0,1,.39-3.22l2.91.72a10.45,10.45,0,0,0-.3,2.5ZM281,131.19a10.63,10.63,0,0,0-4.24-5.38l1.63-2.52a13.64,13.64,0,0,1,5.44,6.9Zm-256.39-4.8L22.72,124a13.35,13.35,0,0,1,8.3-2.9v3A10.38,10.38,0,0,0,24.58,126.39Zm245.37-2.25h-8v-3h8Zm-15.93,0h-8v-3h8Zm-15.93,0h-8v-3h8Zm-15.93,0h-8v-3h8Zm-15.93,0h-8v-3h8Zm-15.93,0h-8v-3h8Zm-15.93,0h-8v-3h8Zm-15.93,0h-8v-3h8Zm-15.93,0h-8v-3h8Zm-15.93,0h-8v-3h8Zm-15.93,0h-8v-3h8Zm-15.93,0h-8v-3h8Zm-15.93,0h-8v-3h8Zm-15.93,0h-8v-3h8Zm-15.93,0H39v-3h8Z"/><path class="cls-8" d="M171.55,187.14h-41a12,12,0,0,1-12-12v6a12,12,0,0,0,12,12h41a12,12,0,0,0,12-12v-6A12,12,0,0,1,171.55,187.14Z"/><g class="cls-9"><rect class="cls-6" x="118.55" y="83.14" width="65" height="117" rx="12" ry="12"/></g><rect class="cls-7" x="118.05" y="76.14" width="65" height="117" rx="12" ry="12"/><path class="cls-5" d="M171.55,77.14h-41a12,12,0,0,0-12,12v4a12,12,0,0,1,12-12h41a12,12,0,0,1,12,12v-4A12,12,0,0,0,171.55,77.14Z"/><path class="cls-6" d="M171.05,188.64H139.24c-3.75,0-9.56,1-13-1-3.68-2.16-3.73-5.8-3.73-9.44V92.35c0-3.12-.41-6.49,1.78-9.06,3-3.53,8.35-2.65,12.5-2.65h20.54c7.83,0,21-2.56,21.17,8.73.18,9.39,0,18.8,0,28.2V163.1c0,7.06,3.26,24.95-7.5,25.53-5.76.31-5.8,9.31,0,9,9.29-.5,16.15-7.28,16.5-16.63.11-3,0-6,0-8.92V92.35c0-3.94.13-7.75-1.69-11.43-3.38-6.86-10-9.28-17.15-9.28-12.52,0-25.06-.17-37.58,0-8,.11-15.19,4.6-17.14,12.74-.72,3-.44,6.35-.44,9.41v80.09c0,3.55-.4,7.54.44,11,2.06,8.59,9.66,12.68,17.93,12.74,13,.09,26.09,0,39.13,0C176.84,197.64,176.85,188.64,171.05,188.64Z"/><path class="cls-6" d="M160.85,185v-3h8.2l.05,2.57V185Zm-8.2,0h-8.2v-3h8.2Zm-16.41,0h-4.19a6.45,6.45,0,0,1-4.67-2l2.16-2.09a3.47,3.47,0,0,0,2.51,1.07h4.19Zm39.31-6.91h-3v-8.2h3Zm-47-4h-3V166h3Zm47-12.45h-3v-8.2h3Zm-47-4h-3v-8.2h3Zm47-12.45h-3v-8.2h3Zm-47-4h-3v-8.2h3Zm47-12.45h-3v-8.2h3Zm-47-4h-3v-8.2h3Zm47-12.45h-3v-8.2h3Zm-47-4h-3v-8.2h3Zm47-12.45h-3V91.75a3.48,3.48,0,0,0-1-2.44l2.14-2.1a6.46,6.46,0,0,1,1.86,4.54Zm-47-4h-3v-.38a6.52,6.52,0,0,1,6.46-6.5l0,3a3.51,3.51,0,0,0-3.48,3.5Zm36.28-3.88h-8.2v-3h8.2Zm-16.4,0h-8.2v-3h8.2Z"/><circle class="cls-8" cx="151.55" cy="168.14" r="14.5"/><circle class="cls-10" cx="151.55" cy="163.14" r="14.5"/><path class="cls-6" d="M151.55,179.14a16,16,0,1,1,16-16A16,16,0,0,1,151.55,179.14Zm0-29a13,13,0,1,0,13,13A13,13,0,0,0,151.55,150.14Z"/></g></g></svg>